<?xml version="1.0" encoding="utf-8"?>
<!-- Generator: Adobe Illustrator 27.2.0, SVG Export Plug-In . SVG Version: 6.00 Build 0)  -->
<svg version="1.1" id="Layer_1" xmlns="http://www.w3.org/2000/svg" xmlns:xlink="http://www.w3.org/1999/xlink" x="0px" y="0px"
	 viewBox="0 0 196.74 81.03" style="enable-background:new 0 0 196.74 81.03;" xml:space="preserve">
<style type="text/css">
	.st0{fill:#201E59;}
	.st1{fill:#34BF70;}
</style>
<g>
	<path class="st0" d="M46.6,4.21h12.66v47.92c0,7.92-2.98,14.63-8.93,20.12c-5.95,5.49-13,8.23-21.13,8.23
		c-8.03,0-14.9-2.86-20.62-8.58C2.86,66.18,0,59.28,0,51.2c0-7.35,2.29-13.63,6.87-18.83c4.58-5.2,10.55-8.4,17.9-9.59
		c2.02-0.31,3.91-0.47,5.67-0.47c3.88,0,8,1.04,12.35,3.11v15.53c-1.45-1.86-3.38-3.31-5.79-4.35c-2.41-1.04-4.98-1.55-7.73-1.55
		c-4.5,0-8.26,1.29-11.26,3.88c-3.42,2.95-5.13,7.09-5.13,12.43c0,4.56,1.63,8.47,4.89,11.73c3.26,3.26,7.2,4.89,11.8,4.89
		c4.56,0,8.53-1.44,11.92-4.31c3.39-2.87,5.09-6.46,5.09-10.76V4.21z"/>
	<path class="st0" d="M101.39,81.03c-9.53,0-17.09-3.14-22.68-9.41c-5.02-5.65-7.53-12.6-7.53-20.84c0-8.35,2.56-15.42,7.69-21.23
		c5.75-6.48,13.49-9.72,23.22-9.72c9.53,0,17.09,3.14,22.68,9.41c5.02,5.65,7.53,12.6,7.53,20.84c0,8.35-2.56,15.42-7.69,21.23
		C118.87,77.79,111.12,81.03,101.39,81.03z M102.71,32.48c-5.64,0-10.12,1.87-13.44,5.6c-3,3.37-4.51,7.5-4.51,12.38
		c0,4.72,1.42,8.69,4.27,11.91c3.21,3.58,7.56,5.37,13.05,5.37c5.64,0,10.12-1.87,13.44-5.6c3-3.37,4.5-7.5,4.5-12.38
		c0-4.72-1.42-8.69-4.27-11.91C112.55,34.28,108.2,32.48,102.71,32.48z"/>
	<path class="st0" d="M144.22,23.48h13.2v57.4h-13.2V23.48z"/>
	<path class="st0" d="M171.11,3.28h13.05v15.61h9.01v13.67h-9.01V58.4c0,1.4,0.24,2.62,0.74,3.66c0.49,1.04,1.28,2.1,2.37,3.19
		c2.07,2.08,4.5,3.11,7.3,3.11c0.93,0,1.66,0,2.17,0v12.66c-0.36,0-0.76,0-1.2,0c-0.44,0-0.74,0-0.89,0c-2.33,0-4.61-0.36-6.83-1.09
		c-2.74-0.88-5.77-2.46-9.09-4.75c-2.02-1.4-3.76-3.58-5.2-6.54c-1.61-3.27-2.41-6.59-2.41-9.96V3.28z"/>
	<polyline class="st1" points="137.8,10.5 149.05,21.63 170.91,0 	"/>
</g>
</svg>
