<?xml version="1.0" encoding="utf-8"?>
<!-- Generator: Adobe Illustrator 27.2.0, SVG Export Plug-In . SVG Version: 6.00 Build 0)  -->
<svg version="1.1" id="Layer_1" xmlns="http://www.w3.org/2000/svg" xmlns:xlink="http://www.w3.org/1999/xlink" x="0px" y="0px"
	 viewBox="0 0 62.84 97.2" style="enable-background:new 0 0 62.84 97.2;" xml:space="preserve">
<style type="text/css">
	.st0{fill:none;stroke:#F2B705;stroke-width:0.5;stroke-miterlimit:10;}
</style>
<g>
	<g>
		
			<rect id="XMLID_1405_" x="44.62" y="4.95" transform="matrix(-1.836970e-16 1 -1 -1.836970e-16 56.0033 -36.6994)" class="st0" width="3.46" height="9.41"/>
		
			<rect id="XMLID_1404_" x="13.64" y="4.95" transform="matrix(-1.836970e-16 1 -1 -1.836970e-16 25.0195 -5.7156)" class="st0" width="3.46" height="9.41"/>
		<rect id="XMLID_1403_" x="24.14" y="28.5" class="st0" width="13.79" height="4.2"/>
		
			<ellipse id="XMLID_1402_" transform="matrix(0.7071 -0.7071 0.7071 0.7071 5.583 32.7825)" class="st0" cx="42.36" cy="9.65" rx="3.99" ry="3.99"/>
		
			<ellipse id="XMLID_1401_" transform="matrix(0.1602 -0.9871 0.9871 0.1602 6.8712 27.38)" class="st0" cx="19.53" cy="9.65" rx="3.99" ry="3.99"/>
		<rect id="XMLID_1400_" x="21.42" y="17.8" class="st0" width="19.64" height="3.86"/>
		<path class="st0" d="M31.15,0.25h-9.06c-0.75,0-1.35,0.6-1.35,1.35l-2.21,17.11h12.63V0.25z"/>
		<path class="st0" d="M43.87,18.71L41.66,1.6c0-0.75-0.6-1.35-1.35-1.35h-9.06v18.46H43.87z"/>
		<path class="st0" d="M31.24,29.74h11.13c0.67,0,1.21-0.54,1.21-1.21l-1-7.78H31.24V29.74z"/>
		<g>
			<circle id="XMLID_1399_" class="st0" cx="25.96" cy="10.2" r="4.61"/>
			<circle id="XMLID_1398_" class="st0" cx="25.96" cy="10.2" r="3.86"/>
			<circle id="XMLID_1397_" class="st0" cx="25.96" cy="10.2" r="2.63"/>
		</g>
		<g>
			<circle id="XMLID_1396_" class="st0" cx="36.3" cy="10.2" r="4.61"/>
			<circle id="XMLID_1395_" class="st0" cx="36.3" cy="10.2" r="3.86"/>
			<circle id="XMLID_1394_" class="st0" cx="36.3" cy="10.2" r="2.63"/>
		</g>
		<rect x="31.15" y="0.25" class="st0" width="0.09" height="18.46"/>
		<path class="st0" d="M20.02,29.74h11.13v-8.99H19.82l-1,7.78C18.81,29.2,19.35,29.74,20.02,29.74z"/>
		<rect x="31.16" y="20.75" class="st0" width="0.08" height="8.99"/>
		<g>
			<polygon id="XMLID_1393_" class="st0" points="20.85,28.04 20.43,27.3 20.85,26.57 21.7,26.57 22.13,27.3 21.7,28.04 			"/>
			<path class="st0" d="M21.7,28.2h-0.85c-0.06,0-0.11-0.03-0.14-0.08l-0.42-0.74c-0.03-0.05-0.03-0.11,0-0.16l0.42-0.74
				c0.03-0.05,0.08-0.08,0.14-0.08h0.85c0.06,0,0.11,0.03,0.14,0.08l0.42,0.74c0.03,0.05,0.03,0.11,0,0.16l-0.42,0.74
				C21.81,28.17,21.76,28.2,21.7,28.2z M20.94,27.88h0.67l0.33-0.58l-0.33-0.58h-0.67l-0.33,0.58L20.94,27.88z"/>
		</g>
		<g>
			<polygon id="XMLID_1392_" class="st0" points="40.64,28.04 40.21,27.3 40.64,26.57 41.48,26.57 41.91,27.3 41.48,28.04 			"/>
			<path class="st0" d="M41.48,28.2h-0.85c-0.06,0-0.11-0.03-0.14-0.08l-0.42-0.74c-0.03-0.05-0.03-0.11,0-0.16l0.42-0.74
				c0.03-0.05,0.08-0.08,0.14-0.08h0.85c0.06,0,0.11,0.03,0.14,0.08l0.42,0.74c0.03,0.05,0.03,0.11,0,0.16l-0.42,0.74
				C41.59,28.17,41.54,28.2,41.48,28.2z M40.73,27.88h0.67l0.33-0.58l-0.33-0.58h-0.67l-0.33,0.58L40.73,27.88z"/>
		</g>
		<g>
			<polygon id="XMLID_1391_" class="st0" points="20.85,17.26 20.43,16.53 20.85,15.79 21.7,15.79 22.13,16.53 21.7,17.26 			"/>
			<path class="st0" d="M21.7,17.42h-0.85c-0.06,0-0.11-0.03-0.14-0.08l-0.42-0.74c-0.03-0.05-0.03-0.11,0-0.16l0.42-0.74
				c0.03-0.05,0.08-0.08,0.14-0.08h0.85c0.06,0,0.11,0.03,0.14,0.08l0.42,0.74c0.03,0.05,0.03,0.11,0,0.16l-0.42,0.74
				C21.81,17.39,21.76,17.42,21.7,17.42z M20.94,17.1h0.67l0.33-0.58l-0.33-0.58h-0.67l-0.33,0.58L20.94,17.1z"/>
		</g>
		<g>
			<polygon id="XMLID_1390_" class="st0" points="40.64,17.26 40.21,16.53 40.64,15.79 41.48,15.79 41.91,16.53 41.48,17.26 			"/>
			<path class="st0" d="M41.48,17.42h-0.85c-0.06,0-0.11-0.03-0.14-0.08l-0.42-0.74c-0.03-0.05-0.03-0.11,0-0.16l0.42-0.74
				c0.03-0.05,0.08-0.08,0.14-0.08h0.85c0.06,0,0.11,0.03,0.14,0.08l0.42,0.74c0.03,0.05,0.03,0.11,0,0.16l-0.42,0.74
				C41.59,17.39,41.54,17.42,41.48,17.42z M40.73,17.1h0.67l0.33-0.58l-0.33-0.58h-0.67l-0.33,0.58L40.73,17.1z"/>
		</g>
		<g>
			<polygon id="XMLID_1389_" class="st0" points="22.52,3.15 22.1,2.42 22.52,1.68 23.37,1.68 23.8,2.42 23.37,3.15 			"/>
			<path class="st0" d="M23.37,3.31h-0.85c-0.06,0-0.11-0.03-0.14-0.08L21.96,2.5c-0.03-0.05-0.03-0.11,0-0.16l0.42-0.74
				c0.03-0.05,0.08-0.08,0.14-0.08h0.85c0.06,0,0.11,0.03,0.14,0.08l0.42,0.74c0.03,0.05,0.03,0.11,0,0.16l-0.42,0.74
				C23.48,3.28,23.43,3.31,23.37,3.31z M22.62,3h0.67l0.33-0.58l-0.33-0.58h-0.67l-0.33,0.58L22.62,3z"/>
		</g>
		<g>
			<polygon id="XMLID_1388_" class="st0" points="38.94,3.15 38.51,2.42 38.94,1.68 39.79,1.68 40.21,2.42 39.79,3.15 			"/>
			<path class="st0" d="M39.79,3.31h-0.85c-0.06,0-0.11-0.03-0.14-0.08L38.38,2.5c-0.03-0.05-0.03-0.11,0-0.16L38.8,1.6
				c0.03-0.05,0.08-0.08,0.14-0.08h0.85c0.06,0,0.11,0.03,0.14,0.08l0.42,0.74c0.03,0.05,0.03,0.11,0,0.16l-0.42,0.74
				C39.9,3.28,39.84,3.31,39.79,3.31z M39.03,3h0.67l0.33-0.58L39.7,1.84h-0.67L38.7,2.42L39.03,3z"/>
		</g>
	</g>
	<g>
		<path class="st0" d="M18.61,32.28c-1.93,0-3.5,2.36-3.5,5.25v31.03v1.17v4.21c0,2.89,1.58,5.25,3.5,5.25H30.9v-9.46v-1.17V32.28
			H18.61z"/>
		<path class="st0" d="M43.87,32.28H30.9V42v0.92V79.2h12.97c1.93,0,3.5-2.36,3.5-5.25V42.91V42v-4.46
			C47.38,34.64,45.8,32.28,43.87,32.28z"/>
	</g>
	<rect x="19.69" y="80.96" class="st0" width="9.24" height="13.91"/>
	<rect x="33.29" y="80.96" class="st0" width="9.24" height="13.91"/>
	<path class="st0" d="M19.68,80.96c2.4,2.67,6.52,4.44,11.22,4.49v-4.49H19.68z"/>
	<path class="st0" d="M42.53,80.96H30.9v4.49c0.07,0,0.14,0,0.21,0C35.88,85.45,40.09,83.67,42.53,80.96z"/>
	<path class="st0" d="M29.6,92.76c0,0.57-0.47,1.04-1.04,1.04h-8.72c-0.57,0-1.04-0.47-1.04-1.04v-1.29c0-0.57,0.47-1.04,1.04-1.04
		h8.72c0.57,0,1.04,0.47,1.04,1.04V92.76z"/>
	<path class="st0" d="M43.57,92.77c0,0.57-0.47,1.04-1.04,1.04h-8.72c-0.57,0-1.04-0.47-1.04-1.04v-1.29c0-0.57,0.47-1.04,1.04-1.04
		h8.72c0.57,0,1.04,0.47,1.04,1.04V92.77z"/>
	<path class="st0" d="M47.48,95.71c0,0.69-0.56,1.25-1.25,1.25H33.37c-0.69,0-1.25-0.56-1.25-1.25v-1.55c0-0.69,0.56-1.25,1.25-1.25
		h12.87c0.69,0,1.25,0.56,1.25,1.25V95.71z"/>
	<path class="st0" d="M30.36,95.71c0,0.69-0.56,1.25-1.25,1.25H16.25c-0.69,0-1.25-0.56-1.25-1.25v-1.55c0-0.69,0.56-1.25,1.25-1.25
		h12.87c0.69,0,1.25,0.56,1.25,1.25V95.71z"/>
	
		<rect x="51.18" y="53.02" transform="matrix(0.9876 -0.157 0.157 0.9876 -8.9614 9.223)" class="st0" width="5.46" height="16.67"/>
	<polygon class="st0" points="55.59,78.82 50.1,75.21 50.11,75.2 50.09,75.19 53.69,69.7 55.62,70.97 53.28,74.53 56.86,76.89 	"/>
	<polygon class="st0" points="60.95,76.47 62.54,70.09 62.53,70.09 62.53,70.07 56.16,68.48 55.6,70.72 59.75,71.75 58.71,75.91 	
		"/>
	<circle class="st0" cx="55.23" cy="69.54" r="3.36"/>
	<g>
		<polygon id="XMLID_1387_" class="st0" points="56.26,70.87 56.85,69.33 55.81,68.05 54.19,68.31 53.6,69.84 54.63,71.12 		"/>
		<path class="st0" d="M54.63,71.28c-0.05,0-0.09-0.02-0.12-0.06l-1.04-1.28c-0.04-0.04-0.04-0.1-0.02-0.16l0.59-1.54
			c0.02-0.05,0.07-0.09,0.12-0.1l1.63-0.26c0.06-0.01,0.11,0.01,0.15,0.06l1.04,1.28c0.04,0.04,0.04,0.1,0.02,0.16l-0.59,1.54
			c-0.02,0.05-0.07,0.09-0.12,0.1l-1.63,0.26C54.65,71.28,54.64,71.28,54.63,71.28z M53.78,69.82l0.92,1.14l1.45-0.23l0.52-1.37
			l-0.92-1.14l-1.45,0.23L53.78,69.82z"/>
	</g>
	<rect x="50.72" y="41.14" class="st0" width="5.46" height="18.07"/>
	<path id="XMLID_1386_" class="st0" d="M49.38,33.82v8.13h8.13C57.52,37.46,53.87,33.82,49.38,33.82z"/>
	<circle class="st0" cx="53.45" cy="55.82" r="4.6"/>
	<g>
		<polygon id="XMLID_1385_" class="st0" points="52.29,57.82 51.14,55.82 52.29,53.82 54.6,53.82 55.76,55.82 54.6,57.82 		"/>
		<path class="st0" d="M54.6,57.98h-2.31c-0.06,0-0.11-0.03-0.14-0.08l-1.15-2c-0.03-0.05-0.03-0.11,0-0.16l1.15-2
			c0.03-0.05,0.08-0.08,0.14-0.08h2.31c0.06,0,0.11,0.03,0.14,0.08l1.15,2c0.03,0.05,0.03,0.11,0,0.16l-1.15,2
			C54.71,57.95,54.66,57.98,54.6,57.98z M52.39,57.66h2.13l1.06-1.84l-1.06-1.84h-2.13l-1.06,1.84L52.39,57.66z"/>
	</g>
	
		<rect x="0.59" y="58.62" transform="matrix(0.157 -0.9876 0.9876 0.157 -53.0697 60.535)" class="st0" width="16.67" height="5.46"/>
	<polygon class="st0" points="7.25,78.82 12.74,75.21 12.73,75.2 12.75,75.19 9.14,69.7 7.22,70.97 9.56,74.53 5.98,76.89 	"/>
	<polygon class="st0" points="1.89,76.47 0.3,70.09 0.31,70.09 0.31,70.07 6.68,68.48 7.24,70.72 3.09,71.75 4.13,75.91 	"/>
	<ellipse transform="matrix(0.9957 -0.0923 0.0923 0.9957 -6.3888 0.9995)" class="st0" cx="7.61" cy="69.54" rx="3.36" ry="3.36"/>
	<g>
		<polygon id="XMLID_1384_" class="st0" points="6.58,70.87 5.99,69.33 7.02,68.05 8.65,68.31 9.24,69.84 8.2,71.12 		"/>
		<path class="st0" d="M8.2,71.28c-0.01,0-0.02,0-0.02,0l-1.63-0.26c-0.06-0.01-0.1-0.05-0.12-0.1l-0.59-1.54
			c-0.02-0.05-0.01-0.11,0.02-0.16l1.04-1.28c0.04-0.04,0.09-0.07,0.15-0.06l1.63,0.26c0.06,0.01,0.1,0.05,0.12,0.1l0.59,1.54
			c0.02,0.05,0.01,0.11-0.02,0.16l-1.04,1.28C8.3,71.26,8.25,71.28,8.2,71.28z M6.69,70.72l1.45,0.23l0.92-1.14l-0.52-1.37
			l-1.45-0.23l-0.92,1.14L6.69,70.72z"/>
	</g>
	<rect x="6.66" y="41.14" class="st0" width="5.46" height="18.07"/>
	<path id="XMLID_1383_" class="st0" d="M13.46,33.82v8.13H5.32C5.32,37.46,8.96,33.82,13.46,33.82z"/>
	<circle class="st0" cx="9.39" cy="55.82" r="4.6"/>
	<g>
		<polygon id="XMLID_1382_" class="st0" points="10.54,57.82 11.7,55.82 10.54,53.82 8.24,53.82 7.08,55.82 8.24,57.82 		"/>
		<path class="st0" d="M10.54,57.98H8.24c-0.06,0-0.11-0.03-0.14-0.08l-1.15-2c-0.03-0.05-0.03-0.11,0-0.16l1.15-2
			c0.03-0.05,0.08-0.08,0.14-0.08h2.31c0.06,0,0.11,0.03,0.14,0.08l1.15,2c0.03,0.05,0.03,0.11,0,0.16l-1.15,2
			C10.65,57.95,10.6,57.98,10.54,57.98z M8.33,57.66h2.13l1.06-1.84l-1.06-1.84H8.33l-1.06,1.84L8.33,57.66z"/>
	</g>
	<g>
		<circle id="XMLID_1381_" class="st0" cx="31.03" cy="44.45" r="6.92"/>
		
			<ellipse id="XMLID_1380_" transform="matrix(0.1602 -0.9871 0.9871 0.1602 -17.809 67.9595)" class="st0" cx="31.03" cy="44.45" rx="5.78" ry="5.78"/>
		
			<ellipse id="XMLID_1379_" transform="matrix(0.7071 -0.7071 0.7071 0.7071 -22.3383 34.9622)" class="st0" cx="31.03" cy="44.45" rx="3.94" ry="3.94"/>
	</g>
	<path class="st0" d="M38.58,54.67h-7.89h-7.48c-1.17,0-2.13,0.84-2.13,1.87v11.06v0.42v1.5c0,1.03,0.96,1.87,2.13,1.87h7.48h7.89
		c1.17,0,2.13-0.84,2.13-1.87V58.46v-0.33v-1.59C40.71,55.51,39.76,54.67,38.58,54.67z"/>
	<path class="st0" d="M37.52,55.82h-6.81h-6.45c-1.01,0-1.84,0.73-1.84,1.62v9.54v0.36v1.29c0,0.89,0.83,1.62,1.84,1.62h6.45h6.81
		c1.01,0,1.84-0.73,1.84-1.62v-9.54v-0.28v-1.37C39.36,56.55,38.53,55.82,37.52,55.82z"/>
	<path class="st0" d="M26.05,68.77h-1.75c-0.17,0-0.32-0.14-0.32-0.32v-0.51c0-0.17,0.14-0.32,0.32-0.32h1.75
		c0.17,0,0.32,0.14,0.32,0.32v0.51C26.36,68.63,26.22,68.77,26.05,68.77z"/>
	<path class="st0" d="M26.05,67.32h-1.75c-0.17,0-0.32-0.14-0.32-0.32v-0.51c0-0.17,0.14-0.32,0.32-0.32h1.75
		c0.17,0,0.32,0.14,0.32,0.32V67C26.36,67.18,26.22,67.32,26.05,67.32z"/>
	<path class="st0" d="M26.05,65.88h-1.75c-0.17,0-0.32-0.14-0.32-0.32v-0.51c0-0.17,0.14-0.32,0.32-0.32h1.75
		c0.17,0,0.32,0.14,0.32,0.32v0.51C26.36,65.74,26.22,65.88,26.05,65.88z"/>
	<path class="st0" d="M34.62,68.77h-1.75c-0.17,0-0.32-0.14-0.32-0.32v-0.51c0-0.17,0.14-0.32,0.32-0.32h1.75
		c0.17,0,0.32,0.14,0.32,0.32v0.51C34.94,68.63,34.8,68.77,34.62,68.77z"/>
	<path class="st0" d="M34.62,67.32h-1.75c-0.17,0-0.32-0.14-0.32-0.32v-0.51c0-0.17,0.14-0.32,0.32-0.32h1.75
		c0.17,0,0.32,0.14,0.32,0.32V67C34.94,67.18,34.8,67.32,34.62,67.32z"/>
	<path class="st0" d="M34.62,65.88h-1.75c-0.17,0-0.32-0.14-0.32-0.32v-0.51c0-0.17,0.14-0.32,0.32-0.32h1.75
		c0.17,0,0.32,0.14,0.32,0.32v0.51C34.94,65.74,34.8,65.88,34.62,65.88z"/>
	<path class="st0" d="M28.87,68.77h-1.75c-0.17,0-0.32-0.14-0.32-0.32v-0.51c0-0.17,0.14-0.32,0.32-0.32h1.75
		c0.17,0,0.32,0.14,0.32,0.32v0.51C29.18,68.63,29.04,68.77,28.87,68.77z"/>
	<path class="st0" d="M28.87,67.32h-1.75c-0.17,0-0.32-0.14-0.32-0.32v-0.51c0-0.17,0.14-0.32,0.32-0.32h1.75
		c0.17,0,0.32,0.14,0.32,0.32V67C29.18,67.18,29.04,67.32,28.87,67.32z"/>
	<path class="st0" d="M28.87,65.88h-1.75c-0.17,0-0.32-0.14-0.32-0.32v-0.51c0-0.17,0.14-0.32,0.32-0.32h1.75
		c0.17,0,0.32,0.14,0.32,0.32v0.51C29.18,65.74,29.04,65.88,28.87,65.88z"/>
	<path class="st0" d="M28.87,64.38h-1.75c-0.17,0-0.32-0.14-0.32-0.32v-0.51c0-0.17,0.14-0.32,0.32-0.32h1.75
		c0.17,0,0.32,0.14,0.32,0.32v0.51C29.18,64.24,29.04,64.38,28.87,64.38z"/>
	<path class="st0" d="M37.5,68.77h-1.75c-0.17,0-0.32-0.14-0.32-0.32v-0.51c0-0.17,0.14-0.32,0.32-0.32h1.75
		c0.17,0,0.32,0.14,0.32,0.32v0.51C37.82,68.63,37.68,68.77,37.5,68.77z"/>
	<path class="st0" d="M37.5,67.32h-1.75c-0.17,0-0.32-0.14-0.32-0.32v-0.51c0-0.17,0.14-0.32,0.32-0.32h1.75
		c0.17,0,0.32,0.14,0.32,0.32V67C37.82,67.18,37.68,67.32,37.5,67.32z"/>
	<path class="st0" d="M37.5,65.88h-1.75c-0.17,0-0.32-0.14-0.32-0.32v-0.51c0-0.17,0.14-0.32,0.32-0.32h1.75
		c0.17,0,0.32,0.14,0.32,0.32v0.51C37.82,65.74,37.68,65.88,37.5,65.88z"/>
	<path class="st0" d="M37.5,64.38h-1.75c-0.17,0-0.32-0.14-0.32-0.32v-0.51c0-0.17,0.14-0.32,0.32-0.32h1.75
		c0.17,0,0.32,0.14,0.32,0.32v0.51C37.82,64.24,37.68,64.38,37.5,64.38z"/>
	<path class="st0" d="M31.82,62.92h-1.75c-0.17,0-0.32-0.14-0.32-0.32V62.1c0-0.17,0.14-0.32,0.32-0.32h1.75
		c0.17,0,0.32,0.14,0.32,0.32v0.51C32.14,62.78,32,62.92,31.82,62.92z"/>
	<path class="st0" d="M31.82,61.42h-1.75c-0.17,0-0.32-0.14-0.32-0.32V60.6c0-0.17,0.14-0.32,0.32-0.32h1.75
		c0.17,0,0.32,0.14,0.32,0.32v0.51C32.14,61.28,32,61.42,31.82,61.42z"/>
	<path class="st0" d="M31.78,68.77h-1.75c-0.17,0-0.32-0.14-0.32-0.32v-0.51c0-0.17,0.14-0.32,0.32-0.32h1.75
		c0.17,0,0.32,0.14,0.32,0.32v0.51C32.09,68.63,31.95,68.77,31.78,68.77z"/>
	<path class="st0" d="M31.78,67.32h-1.75c-0.17,0-0.32-0.14-0.32-0.32v-0.51c0-0.17,0.14-0.32,0.32-0.32h1.75
		c0.17,0,0.32,0.14,0.32,0.32V67C32.09,67.18,31.95,67.32,31.78,67.32z"/>
	<path class="st0" d="M31.78,65.88h-1.75c-0.17,0-0.32-0.14-0.32-0.32v-0.51c0-0.17,0.14-0.32,0.32-0.32h1.75
		c0.17,0,0.32,0.14,0.32,0.32v0.51C32.09,65.74,31.95,65.88,31.78,65.88z"/>
	<path class="st0" d="M31.78,64.38h-1.75c-0.17,0-0.32-0.14-0.32-0.32v-0.51c0-0.17,0.14-0.32,0.32-0.32h1.75
		c0.17,0,0.32,0.14,0.32,0.32v0.51C32.09,64.24,31.95,64.38,31.78,64.38z"/>
	<path class="st0" d="M26.1,58.46h-1.75c-0.17,0-0.32-0.14-0.32-0.32v-0.51c0-0.17,0.14-0.32,0.32-0.32h1.75
		c0.17,0,0.32,0.14,0.32,0.32v0.51C26.42,58.32,26.28,58.46,26.1,58.46z"/>
	<path class="st0" d="M26.06,64.31h-1.75c-0.17,0-0.32-0.14-0.32-0.32v-0.51c0-0.17,0.14-0.32,0.32-0.32h1.75
		c0.17,0,0.32,0.14,0.32,0.32v0.51C26.38,64.16,26.23,64.31,26.06,64.31z"/>
	<path class="st0" d="M26.06,62.85h-1.75c-0.17,0-0.32-0.14-0.32-0.32v-0.51c0-0.17,0.14-0.32,0.32-0.32h1.75
		c0.17,0,0.32,0.14,0.32,0.32v0.51C26.38,62.71,26.23,62.85,26.06,62.85z"/>
	<path class="st0" d="M26.06,61.41h-1.75c-0.17,0-0.32-0.14-0.32-0.32v-0.51c0-0.17,0.14-0.32,0.32-0.32h1.75
		c0.17,0,0.32,0.14,0.32,0.32v0.51C26.38,61.27,26.23,61.41,26.06,61.41z"/>
	<path class="st0" d="M26.06,59.92h-1.75c-0.17,0-0.32-0.14-0.32-0.32v-0.51c0-0.17,0.14-0.32,0.32-0.32h1.75
		c0.17,0,0.32,0.14,0.32,0.32v0.51C26.38,59.77,26.23,59.92,26.06,59.92z"/>
	<path class="st0" d="M28.87,62.84h-1.75c-0.17,0-0.32-0.14-0.32-0.32v-0.51c0-0.17,0.14-0.32,0.32-0.32h1.75
		c0.17,0,0.32,0.14,0.32,0.32v0.51C29.18,62.7,29.04,62.84,28.87,62.84z"/>
	<path class="st0" d="M28.87,61.39h-1.75c-0.17,0-0.32-0.14-0.32-0.32v-0.51c0-0.17,0.14-0.32,0.32-0.32h1.75
		c0.17,0,0.32,0.14,0.32,0.32v0.51C29.18,61.24,29.04,61.39,28.87,61.39z"/>
	<path class="st0" d="M28.87,59.95h-1.75c-0.17,0-0.32-0.14-0.32-0.32v-0.51c0-0.17,0.14-0.32,0.32-0.32h1.75
		c0.17,0,0.32,0.14,0.32,0.32v0.51C29.18,59.81,29.04,59.95,28.87,59.95z"/>
	<path class="st0" d="M28.87,58.45h-1.75c-0.17,0-0.32-0.14-0.32-0.32v-0.51c0-0.17,0.14-0.32,0.32-0.32h1.75
		c0.17,0,0.32,0.14,0.32,0.32v0.51C29.18,58.31,29.04,58.45,28.87,58.45z"/>
	<path class="st0" d="M37.5,62.84h-1.75c-0.17,0-0.32-0.14-0.32-0.32v-0.51c0-0.17,0.14-0.32,0.32-0.32h1.75
		c0.17,0,0.32,0.14,0.32,0.32v0.51C37.82,62.7,37.68,62.84,37.5,62.84z"/>
	<path class="st0" d="M37.5,61.39h-1.75c-0.17,0-0.32-0.14-0.32-0.32v-0.51c0-0.17,0.14-0.32,0.32-0.32h1.75
		c0.17,0,0.32,0.14,0.32,0.32v0.51C37.82,61.24,37.68,61.39,37.5,61.39z"/>
	<path class="st0" d="M37.5,59.95h-1.75c-0.17,0-0.32-0.14-0.32-0.32v-0.51c0-0.17,0.14-0.32,0.32-0.32h1.75
		c0.17,0,0.32,0.14,0.32,0.32v0.51C37.82,59.81,37.68,59.95,37.5,59.95z"/>
	<path class="st0" d="M37.5,58.45h-1.75c-0.17,0-0.32-0.14-0.32-0.32v-0.51c0-0.17,0.14-0.32,0.32-0.32h1.75
		c0.17,0,0.32,0.14,0.32,0.32v0.51C37.82,58.31,37.68,58.45,37.5,58.45z"/>
	<path class="st0" d="M34.62,62.84h-1.75c-0.17,0-0.32-0.14-0.32-0.32v-0.51c0-0.17,0.14-0.32,0.32-0.32h1.75
		c0.17,0,0.32,0.14,0.32,0.32v0.51C34.94,62.7,34.8,62.84,34.62,62.84z"/>
	<path class="st0" d="M34.62,64.38h-1.75c-0.17,0-0.32-0.14-0.32-0.32v-0.51c0-0.17,0.14-0.32,0.32-0.32h1.75
		c0.17,0,0.32,0.14,0.32,0.32v0.51C34.94,64.24,34.8,64.38,34.62,64.38z"/>
	<path class="st0" d="M34.62,61.39h-1.75c-0.17,0-0.32-0.14-0.32-0.32v-0.51c0-0.17,0.14-0.32,0.32-0.32h1.75
		c0.17,0,0.32,0.14,0.32,0.32v0.51C34.94,61.24,34.8,61.39,34.62,61.39z"/>
	<path class="st0" d="M34.62,59.95h-1.75c-0.17,0-0.32-0.14-0.32-0.32v-0.51c0-0.17,0.14-0.32,0.32-0.32h1.75
		c0.17,0,0.32,0.14,0.32,0.32v0.51C34.94,59.81,34.8,59.95,34.62,59.95z"/>
	<path class="st0" d="M34.62,58.45h-1.75c-0.17,0-0.32-0.14-0.32-0.32v-0.51c0-0.17,0.14-0.32,0.32-0.32h1.75
		c0.17,0,0.32,0.14,0.32,0.32v0.51C34.94,58.31,34.8,58.45,34.62,58.45z"/>
	<path class="st0" d="M31.77,59.95h-1.75c-0.17,0-0.32-0.14-0.32-0.32v-0.51c0-0.17,0.14-0.32,0.32-0.32h1.75
		c0.17,0,0.32,0.14,0.32,0.32v0.51C32.09,59.81,31.95,59.95,31.77,59.95z"/>
	<path class="st0" d="M31.77,58.45h-1.75c-0.17,0-0.32-0.14-0.32-0.32v-0.51c0-0.17,0.14-0.32,0.32-0.32h1.75
		c0.17,0,0.32,0.14,0.32,0.32v0.51C32.09,58.31,31.95,58.45,31.77,58.45z"/>
	<g>
		<polygon id="XMLID_1378_" class="st0" points="43.04,36.72 42.52,35.81 43.04,34.9 44.09,34.9 44.62,35.81 44.09,36.72 		"/>
		<path class="st0" d="M44.09,36.88h-1.05c-0.06,0-0.11-0.03-0.14-0.08l-0.52-0.91c-0.03-0.05-0.03-0.11,0-0.16l0.52-0.91
			c0.03-0.05,0.08-0.08,0.14-0.08h1.05c0.06,0,0.11,0.03,0.14,0.08l0.52,0.91c0.03,0.05,0.03,0.11,0,0.16l-0.52,0.91
			C44.2,36.85,44.15,36.88,44.09,36.88z M43.14,36.56H44l0.43-0.75L44,35.06h-0.87l-0.43,0.75L43.14,36.56z"/>
	</g>
	<g>
		<polygon id="XMLID_1377_" class="st0" points="18.29,36.72 17.76,35.81 18.29,34.9 19.34,34.9 19.86,35.81 19.34,36.72 		"/>
		<path class="st0" d="M19.34,36.88h-1.05c-0.06,0-0.11-0.03-0.14-0.08l-0.52-0.91c-0.03-0.05-0.03-0.11,0-0.16l0.52-0.91
			c0.03-0.05,0.08-0.08,0.14-0.08h1.05c0.06,0,0.11,0.03,0.14,0.08L20,35.73c0.03,0.05,0.03,0.11,0,0.16l-0.52,0.91
			C19.44,36.85,19.39,36.88,19.34,36.88z M18.38,36.56h0.87l0.43-0.75l-0.43-0.75h-0.87l-0.43,0.75L18.38,36.56z"/>
	</g>
	<g>
		<polygon id="XMLID_1376_" class="st0" points="43.04,76.66 42.52,75.75 43.04,74.84 44.09,74.84 44.62,75.75 44.09,76.66 		"/>
		<path class="st0" d="M44.09,76.82h-1.05c-0.06,0-0.11-0.03-0.14-0.08l-0.52-0.91c-0.03-0.05-0.03-0.11,0-0.16l0.52-0.91
			c0.03-0.05,0.08-0.08,0.14-0.08h1.05c0.06,0,0.11,0.03,0.14,0.08l0.52,0.91c0.03,0.05,0.03,0.11,0,0.16l-0.52,0.91
			C44.2,76.79,44.15,76.82,44.09,76.82z M43.14,76.5H44l0.43-0.75L44,75h-0.87l-0.43,0.75L43.14,76.5z"/>
	</g>
	<g>
		<polygon id="XMLID_1375_" class="st0" points="18.29,76.66 17.76,75.75 18.29,74.84 19.34,74.84 19.86,75.75 19.34,76.66 		"/>
		<path class="st0" d="M19.34,76.82h-1.05c-0.06,0-0.11-0.03-0.14-0.08l-0.52-0.91c-0.03-0.05-0.03-0.11,0-0.16l0.52-0.91
			c0.03-0.05,0.08-0.08,0.14-0.08h1.05c0.06,0,0.11,0.03,0.14,0.08L20,75.67c0.03,0.05,0.03,0.11,0,0.16l-0.52,0.91
			C19.44,76.79,19.39,76.82,19.34,76.82z M18.38,76.5h0.87l0.43-0.75L19.25,75h-0.87l-0.43,0.75L18.38,76.5z"/>
	</g>
</g>
</svg>
