<?xml version="1.0" encoding="utf-8"?>
<!-- Generator: Adobe Illustrator 27.2.0, SVG Export Plug-In . SVG Version: 6.00 Build 0)  -->
<svg version="1.1" id="Layer_1" xmlns="http://www.w3.org/2000/svg" xmlns:xlink="http://www.w3.org/1999/xlink" x="0px" y="0px"
	 viewBox="0 0 71.13 96.95" style="enable-background:new 0 0 71.13 96.95;" xml:space="preserve">
<style type="text/css">
	.st0{fill:none;stroke:#FD9AFF;stroke-width:0.5;stroke-miterlimit:10;}
</style>
<g>
	<polygon class="st0" points="46.9,85.76 45.3,83.86 47.91,80.09 41.55,69.96 45.59,68.6 53.09,80.56 	"/>
	<polygon class="st0" points="24.43,85.76 26.02,83.86 23.42,80.09 29.78,69.96 25.74,68.6 18.24,80.56 	"/>
	<rect id="XMLID_1332_" x="28.78" y="33.08" class="st0" width="13.85" height="4.22"/>
	<rect id="XMLID_1331_" x="34.04" y="4.54" class="st0" width="3.48" height="5.15"/>
	<rect id="XMLID_1330_" x="33.06" y="0.25" class="st0" width="2.71" height="5.82"/>
	<rect id="XMLID_1329_" x="35.78" y="0.25" class="st0" width="2.71" height="5.82"/>
	<circle id="XMLID_1328_" class="st0" cx="16.43" cy="20.75" r="3.37"/>
	<circle id="XMLID_1327_" class="st0" cx="55.97" cy="20.75" r="3.37"/>
	<rect id="XMLID_1326_" x="23.38" y="29.82" class="st0" width="24.82" height="3.34"/>
	<path id="XMLID_1325_" class="st0" d="M53.06,28.61h-2.4c-1.6,0-2.91-1.31-2.91-2.91v-9.9c0-1.6,1.31-2.91,2.91-2.91h2.4
		c1.6,0,2.91,1.31,2.91,2.91v9.9C55.97,27.3,54.66,28.61,53.06,28.61z"/>
	<path id="XMLID_1324_" class="st0" d="M20.54,28.61L20.54,28.61c-2.26,0-4.12-1.85-4.12-4.12v-7.5c0-2.26,1.85-4.12,4.12-4.12l0,0
		c2.26,0,4.12,1.85,4.12,4.12v7.5C24.66,26.76,22.81,28.61,20.54,28.61z"/>
	<path id="XMLID_1323_" class="st0" d="M23.93,8.21c-1.86,0-3.38,1.34-3.38,2.97v16.43c0,1.64,1.52,2.97,3.38,2.97h11.87V8.21H23.93
		z"/>
	<path id="XMLID_1322_" class="st0" d="M51.71,27.62V11.19c0-1.64-1.52-2.97-3.38-2.97H35.79v22.38h12.53
		C50.18,30.59,51.71,29.25,51.71,27.62z"/>
	<circle id="XMLID_1321_" class="st0" cx="42.44" cy="18.81" r="5.3"/>
	<circle id="XMLID_1320_" class="st0" cx="42.44" cy="18.81" r="4.43"/>
	<circle id="XMLID_1319_" class="st0" cx="42.44" cy="18.81" r="3.02"/>
	<circle id="XMLID_1318_" class="st0" cx="29.32" cy="18.81" r="5.3"/>
	<circle id="XMLID_1317_" class="st0" cx="29.32" cy="18.81" r="4.43"/>
	<circle id="XMLID_1316_" class="st0" cx="29.32" cy="18.81" r="3.02"/>
	<g>
		<polygon id="XMLID_1315_" class="st0" points="23.1,12.5 22.49,11.46 23.1,10.41 24.3,10.41 24.9,11.46 24.3,12.5 		"/>
		<path class="st0" d="M24.3,12.66h-1.2c-0.06,0-0.11-0.03-0.14-0.08l-0.6-1.04c-0.03-0.05-0.03-0.11,0-0.16l0.6-1.04
			c0.03-0.05,0.08-0.08,0.14-0.08h1.2c0.06,0,0.11,0.03,0.14,0.08l0.6,1.04c0.03,0.05,0.03,0.11,0,0.16l-0.6,1.04
			C24.41,12.63,24.36,12.66,24.3,12.66z M23.19,12.34h1.02l0.51-0.89l-0.51-0.89h-1.02l-0.51,0.89L23.19,12.34z"/>
	</g>
	<g>
		<polygon id="XMLID_1314_" class="st0" points="48.35,12.5 47.74,11.46 48.35,10.41 49.55,10.41 50.15,11.46 49.55,12.5 		"/>
		<path class="st0" d="M49.55,12.66h-1.2c-0.06,0-0.11-0.03-0.14-0.08l-0.6-1.04c-0.03-0.05-0.03-0.11,0-0.16l0.6-1.04
			c0.03-0.05,0.08-0.08,0.14-0.08h1.2c0.06,0,0.11,0.03,0.14,0.08l0.6,1.04c0.03,0.05,0.03,0.11,0,0.16l-0.6,1.04
			C49.66,12.63,49.61,12.66,49.55,12.66z M48.44,12.34h1.02l0.51-0.89l-0.51-0.89h-1.02l-0.51,0.89L48.44,12.34z"/>
	</g>
	<g>
		<polygon id="XMLID_1313_" class="st0" points="23.1,28.61 22.49,27.57 23.1,26.53 24.3,26.53 24.9,27.57 24.3,28.61 		"/>
		<path class="st0" d="M24.3,28.77h-1.2c-0.06,0-0.11-0.03-0.14-0.08l-0.6-1.04c-0.03-0.05-0.03-0.11,0-0.16l0.6-1.04
			c0.03-0.05,0.08-0.08,0.14-0.08h1.2c0.06,0,0.11,0.03,0.14,0.08l0.6,1.04c0.03,0.05,0.03,0.11,0,0.16l-0.6,1.04
			C24.41,28.74,24.36,28.77,24.3,28.77z M23.19,28.45h1.02l0.51-0.89l-0.51-0.89h-1.02l-0.51,0.89L23.19,28.45z"/>
	</g>
	<g>
		<polygon id="XMLID_1312_" class="st0" points="48.35,28.61 47.74,27.57 48.35,26.53 49.55,26.53 50.15,27.57 49.55,28.61 		"/>
		<path class="st0" d="M49.55,28.77h-1.2c-0.06,0-0.11-0.03-0.14-0.08l-0.6-1.04c-0.03-0.05-0.03-0.11,0-0.16l0.6-1.04
			c0.03-0.05,0.08-0.08,0.14-0.08h1.2c0.06,0,0.11,0.03,0.14,0.08l0.6,1.04c0.03,0.05,0.03,0.11,0,0.16l-0.6,1.04
			C49.66,28.74,49.61,28.77,49.55,28.77z M48.44,28.45h1.02l0.51-0.89l-0.51-0.89h-1.02l-0.51,0.89L48.44,28.45z"/>
	</g>
	<path class="st0" d="M19.54,36.75c-2.53,0-4.6,1.82-4.6,4.04l4.65,23.89v0.9v3.24c0,2.22,2.07,4.04,4.6,4.04h11.49v-7.28v-0.9
		V36.75H19.54z"/>
	<path class="st0" d="M51.77,36.75c2.53,0,4.6,1.82,4.6,4.04l-4.65,23.89v0.9v3.24c0,2.22-2.07,4.04-4.6,4.04H35.63v-7.28v-0.9
		V36.75H51.77z"/>
	<g>
		<polygon id="XMLID_1311_" class="st0" points="17.86,41.21 17.34,40.3 17.86,39.38 18.92,39.38 19.44,40.3 18.92,41.21 		"/>
		<path class="st0" d="M18.92,41.37h-1.05c-0.06,0-0.11-0.03-0.14-0.08l-0.53-0.91c-0.03-0.05-0.03-0.11,0-0.16l0.53-0.91
			c0.03-0.05,0.08-0.08,0.14-0.08h1.05c0.06,0,0.11,0.03,0.14,0.08l0.53,0.91c0.03,0.05,0.03,0.11,0,0.16l-0.53,0.91
			C19.02,41.34,18.97,41.37,18.92,41.37z M17.95,41.05h0.87l0.44-0.75l-0.44-0.75h-0.87l-0.44,0.75L17.95,41.05z"/>
	</g>
	<g>
		<polygon id="XMLID_1310_" class="st0" points="23.48,69.96 22.95,69.05 23.48,68.14 24.53,68.14 25.06,69.05 24.53,69.96 		"/>
		<path class="st0" d="M24.53,70.12h-1.05c-0.06,0-0.11-0.03-0.14-0.08l-0.53-0.91c-0.03-0.05-0.03-0.11,0-0.16l0.53-0.91
			c0.03-0.05,0.08-0.08,0.14-0.08h1.05c0.06,0,0.11,0.03,0.14,0.08l0.53,0.91c0.03,0.05,0.03,0.11,0,0.16l-0.53,0.91
			C24.64,70.09,24.59,70.12,24.53,70.12z M23.57,69.8h0.87l0.44-0.75l-0.44-0.75h-0.87l-0.44,0.75L23.57,69.8z"/>
	</g>
	<g>
		<polygon id="XMLID_1309_" class="st0" points="46.33,69.96 45.8,69.05 46.33,68.14 47.38,68.14 47.91,69.05 47.38,69.96 		"/>
		<path class="st0" d="M47.38,70.12h-1.05c-0.06,0-0.11-0.03-0.14-0.08l-0.53-0.91c-0.03-0.05-0.03-0.11,0-0.16l0.53-0.91
			c0.03-0.05,0.08-0.08,0.14-0.08h1.05c0.06,0,0.11,0.03,0.14,0.08l0.53,0.91c0.03,0.05,0.03,0.11,0,0.16l-0.53,0.91
			C47.49,70.09,47.44,70.12,47.38,70.12z M46.42,69.8h0.87l0.44-0.75l-0.44-0.75h-0.87l-0.44,0.75L46.42,69.8z"/>
	</g>
	<g>
		<polygon id="XMLID_1308_" class="st0" points="52.44,41.21 51.92,40.3 52.44,39.38 53.5,39.38 54.02,40.3 53.5,41.21 		"/>
		<path class="st0" d="M53.5,41.37h-1.05c-0.06,0-0.11-0.03-0.14-0.08l-0.53-0.91c-0.03-0.05-0.03-0.11,0-0.16l0.53-0.91
			c0.03-0.05,0.08-0.08,0.14-0.08h1.05c0.06,0,0.11,0.03,0.14,0.08l0.53,0.91c0.03,0.05,0.03,0.11,0,0.16l-0.53,0.91
			C53.6,41.34,53.55,41.37,53.5,41.37z M52.53,41.05h0.87l0.44-0.75l-0.44-0.75h-0.87L52.1,40.3L52.53,41.05z"/>
	</g>
	<path class="st0" d="M49.47,44.37c0.35-1.81-0.98-3.54-2.83-3.59c-0.04,0-0.07,0-0.11,0H35.7h-0.04H24.82c-0.04,0-0.07,0-0.11,0
		c-1.84,0.06-3.18,1.78-2.83,3.59l2.27,11.66c0.28,1.42,1.52,2.45,2.97,2.45h17.09c1.45,0,2.7-1.03,2.97-2.45L49.47,44.37z"/>
	<path class="st0" d="M47.3,45.19c0.3-1.52-0.83-2.98-2.38-3.03c-0.03,0-0.06,0-0.09,0h-9.14h-0.03h-9.14c-0.03,0-0.06,0-0.09,0
		c-1.55,0.05-2.68,1.5-2.38,3.03l1.91,9.83c0.23,1.2,1.28,2.07,2.51,2.07h14.41c1.22,0,2.27-0.87,2.51-2.07L47.3,45.19z"/>
	<path class="st0" d="M44.05,46.43c0.21-1.1-0.6-2.15-1.72-2.18c-0.02,0-0.04,0-0.06,0h-6.58h-0.02h-6.58c-0.02,0-0.04,0-0.06,0
		c-1.12,0.03-1.93,1.08-1.72,2.18l1.38,7.08c0.17,0.86,0.93,1.49,1.81,1.49h10.38c0.88,0,1.64-0.62,1.81-1.49L44.05,46.43z"/>
	<polygon class="st0" points="46.92,85.87 42.91,88.39 42.91,80.41 46.92,82.49 	"/>
	<polygon class="st0" points="24.36,85.87 28.36,88.39 28.36,80.41 24.36,82.49 	"/>
	<path class="st0" d="M33.65,73.9c-2.51,0-4.54,2.03-4.54,4.54v13.72c0,2.51,2.03,4.54,4.54,4.54h2.03V73.9H33.65z"/>
	<path class="st0" d="M42.15,92.16V78.44c0-2.51-2.03-4.54-4.54-4.54h-1.92V96.7h1.92C40.12,96.7,42.15,94.67,42.15,92.16z"/>
	
		<rect x="59.42" y="59.26" transform="matrix(0.9876 -0.157 0.157 0.9876 -9.8451 10.5961)" class="st0" width="5.49" height="16.75"/>
	<polygon class="st0" points="63.85,85.18 58.34,81.55 58.34,81.54 58.32,81.53 61.95,76.02 63.88,77.29 61.52,80.88 65.12,83.24 	
		"/>
	<polygon class="st0" points="69.23,82.82 70.83,76.41 70.82,76.41 70.82,76.39 64.42,74.79 63.86,77.04 68.02,78.08 66.98,82.26 	
		"/>
	
		<ellipse transform="matrix(0.9989 -0.0474 0.0474 0.9989 -3.5217 3.0925)" class="st0" cx="63.49" cy="75.85" rx="3.37" ry="3.37"/>
	<g>
		<polygon id="XMLID_1307_" class="st0" points="64.53,77.19 65.12,75.64 64.08,74.36 62.44,74.62 61.85,76.16 62.89,77.45 		"/>
		<path class="st0" d="M62.89,77.61c-0.05,0-0.09-0.02-0.12-0.06l-1.04-1.29c-0.04-0.04-0.05-0.1-0.02-0.16l0.59-1.55
			c0.02-0.05,0.07-0.09,0.12-0.1l1.64-0.26c0.06-0.01,0.11,0.01,0.15,0.06l1.04,1.29c0.04,0.04,0.05,0.1,0.02,0.16l-0.59,1.55
			c-0.02,0.05-0.07,0.09-0.12,0.1l-1.64,0.26C62.91,77.61,62.9,77.61,62.89,77.61z M62.03,76.14l0.93,1.14l1.46-0.23l0.53-1.38
			l-0.93-1.14l-1.46,0.23L62.03,76.14z"/>
	</g>
	<rect x="58.96" y="47.33" class="st0" width="5.49" height="18.15"/>
	<path id="XMLID_1306_" class="st0" d="M57.61,39.97v8.17h8.17C65.78,43.63,62.13,39.97,57.61,39.97z"/>
	<circle class="st0" cx="61.7" cy="62.08" r="4.62"/>
	<g>
		<polygon id="XMLID_1305_" class="st0" points="60.54,64.09 59.38,62.08 60.54,60.07 62.86,60.07 64.02,62.08 62.86,64.09 		"/>
		<path class="st0" d="M62.86,64.24h-2.32c-0.06,0-0.11-0.03-0.14-0.08l-1.16-2.01c-0.03-0.05-0.03-0.11,0-0.16l1.16-2.01
			c0.03-0.05,0.08-0.08,0.14-0.08h2.32c0.06,0,0.11,0.03,0.14,0.08L64.16,62c0.03,0.05,0.03,0.11,0,0.16L63,64.17
			C62.97,64.21,62.92,64.24,62.86,64.24z M60.63,63.93h2.14l1.07-1.85l-1.07-1.85h-2.14l-1.07,1.85L60.63,63.93z"/>
	</g>
	
		<rect x="0.59" y="64.89" transform="matrix(0.157 -0.9876 0.9876 0.157 -59.2402 65.8693)" class="st0" width="16.75" height="5.49"/>
	<polygon class="st0" points="7.28,85.18 12.8,81.55 12.79,81.54 12.81,81.53 9.18,76.02 7.25,77.29 9.61,80.88 6.01,83.24 	"/>
	<polygon class="st0" points="1.9,82.82 0.3,76.41 0.31,76.41 0.31,76.39 6.71,74.79 7.27,77.04 3.11,78.08 4.15,82.26 	"/>
	<circle class="st0" cx="7.64" cy="75.85" r="3.37"/>
	<g>
		<polygon id="XMLID_1304_" class="st0" points="6.6,77.19 6.01,75.64 7.06,74.36 8.69,74.62 9.28,76.16 8.24,77.45 		"/>
		<path class="st0" d="M8.24,77.61c-0.01,0-0.02,0-0.02,0l-1.64-0.26c-0.06-0.01-0.1-0.05-0.12-0.1L5.86,75.7
			c-0.02-0.05-0.01-0.11,0.02-0.16l1.04-1.29c0.04-0.04,0.09-0.07,0.15-0.06l1.64,0.26c0.06,0.01,0.1,0.05,0.12,0.1l0.59,1.55
			c0.02,0.05,0.01,0.11-0.02,0.16l-1.04,1.29C8.33,77.59,8.29,77.61,8.24,77.61z M6.72,77.05l1.46,0.23l0.93-1.14l-0.53-1.38
			l-1.46-0.23l-0.93,1.14L6.72,77.05z"/>
	</g>
	<rect x="6.69" y="47.33" class="st0" width="5.49" height="18.15"/>
	<path id="XMLID_1303_" class="st0" d="M13.52,39.97v8.17H5.35C5.35,43.63,9,39.97,13.52,39.97z"/>
	<circle class="st0" cx="9.43" cy="62.08" r="4.62"/>
	<g>
		<polygon id="XMLID_1302_" class="st0" points="10.59,64.09 11.75,62.08 10.59,60.07 8.27,60.07 7.11,62.08 8.27,64.09 		"/>
		<path class="st0" d="M10.59,64.24H8.27c-0.06,0-0.11-0.03-0.14-0.08l-1.16-2.01c-0.03-0.05-0.03-0.11,0-0.16l1.16-2.01
			c0.03-0.05,0.08-0.08,0.14-0.08h2.32c0.06,0,0.11,0.03,0.14,0.08L11.89,62c0.03,0.05,0.03,0.11,0,0.16l-1.16,2.01
			C10.7,64.21,10.65,64.24,10.59,64.24z M8.36,63.93h2.14l1.07-1.85l-1.07-1.85H8.36L7.3,62.08L8.36,63.93z"/>
	</g>
</g>
</svg>
