<?xml version="1.0" encoding="utf-8"?>
<!-- Generator: Adobe Illustrator 27.2.0, SVG Export Plug-In . SVG Version: 6.00 Build 0)  -->
<svg version="1.1" id="Layer_1" xmlns="http://www.w3.org/2000/svg" xmlns:xlink="http://www.w3.org/1999/xlink" x="0px" y="0px"
	 viewBox="0 0 72.57 97.96" style="enable-background:new 0 0 72.57 97.96;" xml:space="preserve">
<style type="text/css">
	.st0{fill:none;stroke:#F0ECEC;stroke-width:0.5;stroke-miterlimit:10;}
</style>
<g>
	<polygon class="st0" points="44.49,72.33 35.73,97.2 26.96,72.33 	"/>
	<rect id="XMLID_1202_" x="21.82" y="2.01" class="st0" width="29.04" height="1.06"/>
	<rect id="XMLID_1201_" x="34.53" y="0.98" class="st0" width="3.49" height="5.84"/>
	<rect id="XMLID_1200_" x="29.13" y="29.52" class="st0" width="13.91" height="6.84"/>
	<rect id="XMLID_1199_" x="26.99" y="22.43" class="st0" width="18.25" height="4.37"/>
	<path class="st0" d="M36.27,4.76c-7.81,0-14.14,6.33-14.14,14.14c0,1.43,0.21,2.81,0.61,4.11h13.53V4.76z"/>
	<path class="st0" d="M49.8,23.01c0.39-1.3,0.61-2.68,0.61-4.11c0-7.81-6.33-14.14-14.14-14.14v18.25H49.8z"/>
	<path class="st0" d="M36.27,7.32c-5.78,0-10.46,4.68-10.46,10.46c0,1.06,0.16,2.08,0.45,3.04h10.01V7.32z"/>
	<path class="st0" d="M46.28,20.81c0.29-0.96,0.45-1.98,0.45-3.04c0-5.78-4.68-10.46-10.46-10.46v13.5H46.28z"/>
	<path class="st0" d="M36.27,8.98c-4.36,0-7.89,3.53-7.89,7.89c0,0.8,0.12,1.57,0.34,2.29h7.55V8.98z"/>
	<path class="st0" d="M43.82,19.16c0.22-0.73,0.34-1.5,0.34-2.29c0-4.36-3.53-7.89-7.89-7.89v10.18H43.82z"/>
	<path id="XMLID_1198_" class="st0" d="M24.51,4.83L24.51,4.83c-0.23,0-0.42-0.19-0.42-0.42V0.67c0-0.23,0.19-0.42,0.42-0.42l0,0
		c0.23,0,0.42,0.19,0.42,0.42v3.73C24.93,4.64,24.74,4.83,24.51,4.83z"/>
	<path id="XMLID_1197_" class="st0" d="M26.29,4.83h-0.25c-0.16,0-0.3-0.13-0.3-0.3V0.55c0-0.16,0.13-0.3,0.3-0.3h0.25
		c0.16,0,0.3,0.13,0.3,0.3v3.98C26.59,4.69,26.45,4.83,26.29,4.83z"/>
	<path id="XMLID_1196_" class="st0" d="M27.87,4.83L27.87,4.83c-0.23,0-0.42-0.19-0.42-0.42V0.67c0-0.23,0.19-0.42,0.42-0.42l0,0
		c0.23,0,0.42,0.19,0.42,0.42v3.73C28.3,4.64,28.11,4.83,27.87,4.83z"/>
	<path id="XMLID_1195_" class="st0" d="M29.5,4.83L29.5,4.83c-0.23,0-0.42-0.19-0.42-0.42V0.67c0-0.23,0.19-0.42,0.42-0.42l0,0
		c0.23,0,0.42,0.19,0.42,0.42v3.73C29.93,4.64,29.74,4.83,29.5,4.83z"/>
	<path id="XMLID_1194_" class="st0" d="M43.06,4.83L43.06,4.83c-0.23,0-0.42-0.19-0.42-0.42V0.67c0-0.23,0.19-0.42,0.42-0.42l0,0
		c0.23,0,0.42,0.19,0.42,0.42v3.73C43.48,4.64,43.29,4.83,43.06,4.83z"/>
	<path id="XMLID_1193_" class="st0" d="M44.86,4.83L44.86,4.83c-0.23,0-0.42-0.19-0.42-0.42V0.67c0-0.23,0.19-0.42,0.42-0.42l0,0
		c0.23,0,0.42,0.19,0.42,0.42v3.73C45.29,4.64,45.1,4.83,44.86,4.83z"/>
	<path id="XMLID_1192_" class="st0" d="M46.52,4.83L46.52,4.83c-0.23,0-0.42-0.19-0.42-0.42V0.67c0-0.23,0.19-0.42,0.42-0.42l0,0
		c0.23,0,0.42,0.19,0.42,0.42v3.73C46.94,4.64,46.75,4.83,46.52,4.83z"/>
	<path id="XMLID_1191_" class="st0" d="M48.23,4.83L48.23,4.83c-0.23,0-0.42-0.19-0.42-0.42V0.67c0-0.23,0.19-0.42,0.42-0.42l0,0
		c0.23,0,0.42,0.19,0.42,0.42v3.73C48.66,4.64,48.46,4.83,48.23,4.83z"/>
	<path id="XMLID_1190_" class="st0" d="M23.15,24.38c0.03,4.92,4.06,8.94,8.99,8.94h3.94v-8.94H23.15z"/>
	<path id="XMLID_1189_" class="st0" d="M49.01,24.38H36.08v8.94h3.94C44.95,33.32,48.99,29.3,49.01,24.38z"/>
	<g>
		<polygon id="XMLID_1188_" class="st0" points="29.79,29.17 29.26,28.26 29.79,27.34 30.85,27.34 31.38,28.26 30.85,29.17 		"/>
		<path class="st0" d="M30.85,29.33h-1.06c-0.06,0-0.11-0.03-0.14-0.08l-0.53-0.92c-0.03-0.05-0.03-0.11,0-0.16l0.53-0.92
			c0.03-0.05,0.08-0.08,0.14-0.08h1.06c0.06,0,0.11,0.03,0.14,0.08l0.53,0.92c0.03,0.05,0.03,0.11,0,0.16l-0.53,0.92
			C30.96,29.3,30.91,29.33,30.85,29.33z M29.88,29.02h0.87l0.44-0.76l-0.44-0.76h-0.87l-0.44,0.76L29.88,29.02z"/>
	</g>
	<g>
		<polygon id="XMLID_1187_" class="st0" points="41.05,29.17 40.52,28.26 41.05,27.34 42.1,27.34 42.63,28.26 42.1,29.17 		"/>
		<path class="st0" d="M42.1,29.33h-1.06c-0.06,0-0.11-0.03-0.14-0.08l-0.53-0.92c-0.03-0.05-0.03-0.11,0-0.16l0.53-0.92
			c0.03-0.05,0.08-0.08,0.14-0.08h1.06c0.06,0,0.11,0.03,0.14,0.08l0.53,0.92c0.03,0.05,0.03,0.11,0,0.16l-0.53,0.92
			C42.21,29.3,42.16,29.33,42.1,29.33z M41.14,29.02h0.87l0.44-0.76l-0.44-0.76h-0.87l-0.44,0.76L41.14,29.02z"/>
	</g>
	<path class="st0" d="M22.83,2.54c0,0.88-0.71,1.6-1.6,1.6c-0.88,0-1.6-0.71-1.6-1.6c0-0.88,0.71-1.6,1.6-1.6
		C22.11,0.94,22.83,1.66,22.83,2.54z"/>
	<path class="st0" d="M52.88,2.54c0,0.88-0.71,1.6-1.6,1.6c-0.88,0-1.6-0.71-1.6-1.6c0-0.88,0.71-1.6,1.6-1.6
		C52.16,0.94,52.88,1.66,52.88,2.54z"/>
	<path class="st0" d="M19.59,36.04c-2.54,0-4.62,1.27-4.62,2.83v16.71v0.63v2.26c0,1.56,2.08,2.83,4.62,2.83H35.8v-5.09v-0.63V36.04
		H19.59z"/>
	<path class="st0" d="M52.92,36.04H35.8v5.23v0.49V61.3h17.12c2.54,0,4.62-1.27,4.62-2.83V41.77v-0.49v-2.4
		C57.55,37.31,55.47,36.04,52.92,36.04z"/>
	<path class="st0" d="M22.48,63.04H35.8v13.13C28.45,76.17,22.48,70.29,22.48,63.04z"/>
	<path class="st0" d="M35.8,76.17V63.04h13.32C49.12,70.29,43.16,76.17,35.8,76.17z"/>
	<path class="st0" d="M44.1,79.17H27.35c-0.42,0-0.77-0.5-0.77-1.11v-0.02c0-0.61,0.34-1.11,0.77-1.11H44.1
		c0.42,0,0.77,0.5,0.77,1.11v0.02C44.86,78.67,44.52,79.17,44.1,79.17z"/>
	<path class="st0" d="M42.03,83.09H29.42c-0.32,0-0.58-0.37-0.58-0.83v-0.02c0-0.46,0.26-0.83,0.58-0.83h12.61
		c0.32,0,0.58,0.37,0.58,0.83v0.02C42.61,82.72,42.35,83.09,42.03,83.09z"/>
	<path class="st0" d="M41.17,86.82h-10.9c-0.28,0-0.5-0.32-0.5-0.72v-0.01c0-0.4,0.22-0.72,0.5-0.72h10.9c0.28,0,0.5,0.32,0.5,0.72
		v0.01C41.67,86.5,41.45,86.82,41.17,86.82z"/>
	<g>
		<polygon id="XMLID_1186_" class="st0" points="17.92,39.99 17.39,39.08 17.92,38.16 18.98,38.16 19.5,39.08 18.98,39.99 		"/>
		<path class="st0" d="M18.98,40.15h-1.06c-0.06,0-0.11-0.03-0.14-0.08l-0.53-0.92c-0.03-0.05-0.03-0.11,0-0.16l0.53-0.92
			c0.03-0.05,0.08-0.08,0.14-0.08h1.06c0.06,0,0.11,0.03,0.14,0.08L19.64,39c0.03,0.05,0.03,0.11,0,0.16l-0.53,0.92
			C19.08,40.12,19.03,40.15,18.98,40.15z M18.01,39.83h0.87l0.44-0.76l-0.44-0.76h-0.87l-0.44,0.76L18.01,39.83z"/>
	</g>
	<g>
		<polygon id="XMLID_1185_" class="st0" points="53.71,39.99 53.18,39.08 53.71,38.16 54.76,38.16 55.29,39.08 54.76,39.99 		"/>
		<path class="st0" d="M54.76,40.15h-1.06c-0.06,0-0.11-0.03-0.14-0.08l-0.53-0.92c-0.03-0.05-0.03-0.11,0-0.16l0.53-0.92
			C53.6,38.03,53.65,38,53.71,38h1.06c0.06,0,0.11,0.03,0.14,0.08L55.43,39c0.03,0.05,0.03,0.11,0,0.16l-0.53,0.92
			C54.87,40.12,54.82,40.15,54.76,40.15z M53.8,39.83h0.87l0.44-0.76l-0.44-0.76H53.8l-0.44,0.76L53.8,39.83z"/>
	</g>
	<g>
		<polygon id="XMLID_1184_" class="st0" points="17.92,58.95 17.39,58.03 17.92,57.11 18.98,57.11 19.5,58.03 18.98,58.95 		"/>
		<path class="st0" d="M18.98,59.11h-1.06c-0.06,0-0.11-0.03-0.14-0.08l-0.53-0.92c-0.03-0.05-0.03-0.11,0-0.16l0.53-0.92
			c0.03-0.05,0.08-0.08,0.14-0.08h1.06c0.06,0,0.11,0.03,0.14,0.08l0.53,0.92c0.03,0.05,0.03,0.11,0,0.16l-0.53,0.92
			C19.08,59.08,19.03,59.11,18.98,59.11z M18.01,58.79h0.87l0.44-0.76l-0.44-0.76h-0.87l-0.44,0.76L18.01,58.79z"/>
	</g>
	<g>
		<polygon id="XMLID_1183_" class="st0" points="53.71,58.95 53.18,58.03 53.71,57.12 54.76,57.12 55.29,58.03 54.76,58.95 		"/>
		<path class="st0" d="M54.76,59.11h-1.06c-0.06,0-0.11-0.03-0.14-0.08l-0.53-0.92c-0.03-0.05-0.03-0.11,0-0.16l0.53-0.92
			c0.03-0.05,0.08-0.08,0.14-0.08h1.06c0.06,0,0.11,0.03,0.14,0.08l0.53,0.92c0.03,0.05,0.03,0.11,0,0.16l-0.53,0.92
			C54.87,59.08,54.82,59.11,54.76,59.11z M53.8,58.79h0.87l0.44-0.76l-0.44-0.76H53.8l-0.44,0.76L53.8,58.79z"/>
	</g>
	
		<rect x="60.81" y="57.17" transform="matrix(0.9876 -0.157 0.157 0.9876 -9.5054 10.79)" class="st0" width="5.51" height="16.82"/>
	<polygon class="st0" points="65.25,83.2 59.72,79.56 59.72,79.55 59.7,79.54 63.34,74 65.29,75.28 62.92,78.88 66.53,81.25 	"/>
	<polygon class="st0" points="70.66,80.83 72.26,74.4 72.25,74.4 72.26,74.37 65.83,72.77 65.27,75.03 69.45,76.07 68.4,80.27 	"/>
	<circle class="st0" cx="64.89" cy="73.84" r="3.39"/>
	<g>
		<polygon id="XMLID_1182_" class="st0" points="65.93,75.18 66.53,73.63 65.48,72.33 63.84,72.59 63.24,74.15 64.29,75.44 		"/>
		<path class="st0" d="M64.29,75.6c-0.05,0-0.09-0.02-0.12-0.06l-1.05-1.29c-0.04-0.04-0.05-0.1-0.02-0.16l0.6-1.55
			c0.02-0.05,0.07-0.09,0.12-0.1l1.64-0.26c0.06-0.01,0.11,0.01,0.15,0.06l1.05,1.29c0.04,0.04,0.05,0.1,0.02,0.16l-0.6,1.55
			c-0.02,0.05-0.07,0.09-0.12,0.1l-1.64,0.26C64.31,75.6,64.3,75.6,64.29,75.6z M63.42,74.12l0.93,1.15l1.46-0.23l0.53-1.38
			l-0.93-1.15l-1.46,0.23L63.42,74.12z"/>
	</g>
	<rect x="60.34" y="45.18" class="st0" width="5.51" height="18.23"/>
	<path id="XMLID_1181_" class="st0" d="M58.99,37.8V46h8.21C67.2,41.47,63.52,37.8,58.99,37.8z"/>
	<circle class="st0" cx="63.09" cy="60" r="4.64"/>
	<g>
		<polygon id="XMLID_1180_" class="st0" points="61.93,62.02 60.77,60 61.93,57.98 64.26,57.98 65.42,60 64.26,62.02 		"/>
		<path class="st0" d="M64.26,62.17h-2.33c-0.06,0-0.11-0.03-0.14-0.08l-1.16-2.02c-0.03-0.05-0.03-0.11,0-0.16l1.16-2.02
			c0.03-0.05,0.08-0.08,0.14-0.08h2.33c0.06,0,0.11,0.03,0.14,0.08l1.16,2.02c0.03,0.05,0.03,0.11,0,0.16L64.4,62.1
			C64.37,62.14,64.32,62.17,64.26,62.17z M62.02,61.86h2.15L65.24,60l-1.07-1.86h-2.15L60.95,60L62.02,61.86z"/>
	</g>
	
		<rect x="0.59" y="62.82" transform="matrix(0.157 -0.9876 0.9876 0.157 -57.1794 64.1744)" class="st0" width="16.82" height="5.51"/>
	<polygon class="st0" points="7.31,83.2 12.85,79.56 12.84,79.55 12.86,79.54 9.22,74 7.28,75.28 9.65,78.88 6.03,81.25 	"/>
	<polygon class="st0" points="1.91,80.83 0.3,74.4 0.31,74.4 0.31,74.37 6.74,72.77 7.3,75.03 3.12,76.07 4.16,80.27 	"/>
	<path class="st0" d="M4.93,75.82c-1.1-1.51-0.76-3.63,0.75-4.73c1.51-1.1,3.63-0.76,4.73,0.75c1.1,1.51,0.76,3.63-0.75,4.73
		C8.15,77.68,6.03,77.34,4.93,75.82z"/>
	<g>
		<polygon id="XMLID_1179_" class="st0" points="6.63,75.18 6.04,73.63 7.08,72.33 8.73,72.59 9.32,74.15 8.27,75.44 		"/>
		<path class="st0" d="M8.27,75.6c-0.01,0-0.02,0-0.02,0l-1.64-0.26c-0.06-0.01-0.1-0.05-0.12-0.1l-0.6-1.55
			c-0.02-0.05-0.01-0.11,0.02-0.16l1.05-1.29c0.04-0.04,0.09-0.07,0.15-0.06l1.64,0.26c0.06,0.01,0.1,0.05,0.12,0.1l0.6,1.55
			c0.02,0.05,0.01,0.11-0.02,0.16L8.4,75.54C8.37,75.58,8.32,75.6,8.27,75.6z M6.75,75.04l1.46,0.23l0.93-1.15l-0.53-1.38L7.15,72.5
			l-0.93,1.15L6.75,75.04z"/>
	</g>
	<rect x="6.72" y="45.18" class="st0" width="5.51" height="18.23"/>
	<path id="XMLID_1178_" class="st0" d="M13.57,37.8V46H5.37C5.37,41.47,9.04,37.8,13.57,37.8z"/>
	<circle class="st0" cx="9.47" cy="60" r="4.64"/>
	<g>
		<polygon id="XMLID_1177_" class="st0" points="10.64,62.02 11.8,60 10.64,57.98 8.31,57.98 7.14,60 8.31,62.02 		"/>
		<path class="st0" d="M10.64,62.17H8.31c-0.06,0-0.11-0.03-0.14-0.08L7,60.08c-0.03-0.05-0.03-0.11,0-0.16l1.16-2.02
			c0.03-0.05,0.08-0.08,0.14-0.08h2.33c0.06,0,0.11,0.03,0.14,0.08l1.16,2.02c0.03,0.05,0.03,0.11,0,0.16l-1.16,2.02
			C10.74,62.14,10.69,62.17,10.64,62.17z M8.4,61.86h2.15L11.62,60l-1.07-1.86H8.4L7.33,60L8.4,61.86z"/>
	</g>
	<polygon class="st0" points="51.4,55.52 35.86,39.98 20.32,55.52 	"/>
	<polygon class="st0" points="48.27,54.31 35.86,41.9 23.44,54.31 	"/>
	<polygon class="st0" points="44.43,52.84 35.86,44.27 27.29,52.84 	"/>
</g>
</svg>
