<?xml version="1.0" encoding="utf-8"?>
<!-- Generator: Adobe Illustrator 27.2.0, SVG Export Plug-In . SVG Version: 6.00 Build 0)  -->
<svg version="1.1" id="Layer_1" xmlns="http://www.w3.org/2000/svg" xmlns:xlink="http://www.w3.org/1999/xlink" x="0px" y="0px"
	 viewBox="0 0 73.24 97.96" style="enable-background:new 0 0 73.24 97.96;" xml:space="preserve">
<style type="text/css">
	.st0{fill:none;stroke:#9A9DD9;stroke-width:0.5;stroke-miterlimit:10;}
</style>
<g>
	<rect id="XMLID_1434_" x="20.29" y="62.77" class="st0" width="31.99" height="7.05"/>
	<g>
		<rect id="XMLID_1433_" x="46.54" y="4.69" class="st0" width="3.59" height="9.76"/>
		<rect id="XMLID_1432_" x="45.53" y="0.25" class="st0" width="2.8" height="6.01"/>
		<rect id="XMLID_1431_" x="48.34" y="0.25" class="st0" width="2.8" height="6.01"/>
		<rect id="XMLID_1430_" x="23.4" y="4.69" class="st0" width="3.59" height="9.76"/>
		<rect id="XMLID_1429_" x="22.39" y="0.25" class="st0" width="2.8" height="6.01"/>
		<rect id="XMLID_1428_" x="25.19" y="0.25" class="st0" width="2.8" height="6.01"/>
		<rect id="XMLID_1427_" x="26.44" y="21.48" class="st0" width="20.38" height="2.45"/>
		<path class="st0" d="M20.32,22.13h16.3V6.06C27.62,6.06,20.32,13.26,20.32,22.13z"/>
		<path class="st0" d="M36.63,6.06v16.07h16.3C52.93,13.26,45.63,6.06,36.63,6.06z"/>
		<rect id="XMLID_1426_" x="29.1" y="30.33" class="st0" width="14.31" height="4.36"/>
		<path class="st0" d="M47.1,18.14c0,0.77-0.63,1.4-1.4,1.4H27.56c-0.77,0-1.4-0.63-1.4-1.4v-1.5c0-0.77,0.63-1.4,1.4-1.4H45.7
			c0.77,0,1.4,0.63,1.4,1.4V18.14z"/>
		<path class="st0" d="M32.13,17.47c0,0.73-0.6,1.33-1.33,1.33h-2.1c-0.74,0-1.33-0.6-1.33-1.33l0,0c0-0.74,0.6-1.33,1.33-1.33h2.1
			C31.53,16.13,32.13,16.73,32.13,17.47L32.13,17.47z"/>
		<path class="st0" d="M31.57,17.47c0,0.56-0.46,1.02-1.02,1.02h-1.61c-0.56,0-1.02-0.46-1.02-1.02l0,0c0-0.56,0.46-1.02,1.02-1.02
			h1.61C31.11,16.45,31.57,16.9,31.57,17.47L31.57,17.47z"/>
		<path class="st0" d="M46,17.47c0,0.73-0.6,1.33-1.33,1.33H34.44c-0.74,0-1.33-0.6-1.33-1.33l0,0c0-0.74,0.6-1.33,1.33-1.33h10.23
			C45.4,16.13,46,16.73,46,17.47L46,17.47z"/>
		<path class="st0" d="M45.03,17.47c0,0.62-0.51,1.13-1.13,1.13H35.2c-0.62,0-1.13-0.51-1.13-1.13l0,0c0-0.62,0.51-1.13,1.13-1.13
			h8.69C44.52,16.33,45.03,16.84,45.03,17.47L45.03,17.47z"/>
		<path id="XMLID_1425_" class="st0" d="M25.89,23.88c-1.68,0-3.06,0.46-3.06,1.01v5.6c0,0.56,1.38,1.01,3.06,1.01h10.72v-7.63
			H25.89z"/>
		<path id="XMLID_1424_" class="st0" d="M50.98,30.5v-5.6c0-0.56-1.38-1.01-3.06-1.01H36.61v7.63h11.32
			C49.61,31.51,50.98,31.06,50.98,30.5z"/>
		<g>
			<polygon id="XMLID_1423_" class="st0" points="24.5,14.45 24.06,13.68 24.5,12.92 25.38,12.92 25.82,13.68 25.38,14.45 			"/>
			<path class="st0" d="M25.38,14.61H24.5c-0.06,0-0.11-0.03-0.14-0.08l-0.44-0.76c-0.03-0.05-0.03-0.11,0-0.16l0.44-0.76
				c0.03-0.05,0.08-0.08,0.14-0.08h0.88c0.06,0,0.11,0.03,0.14,0.08l0.44,0.76c0.03,0.05,0.03,0.11,0,0.16l-0.44,0.76
				C25.49,14.58,25.44,14.61,25.38,14.61z M24.59,14.28h0.69l0.35-0.6l-0.35-0.6h-0.69l-0.35,0.6L24.59,14.28z"/>
		</g>
		<g>
			<polygon id="XMLID_1422_" class="st0" points="47.87,14.45 47.43,13.68 47.87,12.92 48.75,12.92 49.19,13.68 48.75,14.45 			"/>
			<path class="st0" d="M48.75,14.61h-0.88c-0.06,0-0.11-0.03-0.14-0.08l-0.44-0.76c-0.03-0.05-0.03-0.11,0-0.16l0.44-0.76
				c0.03-0.05,0.08-0.08,0.14-0.08h0.88c0.06,0,0.11,0.03,0.14,0.08l0.44,0.76c0.03,0.05,0.03,0.11,0,0.16l-0.44,0.76
				C48.86,14.58,48.81,14.61,48.75,14.61z M47.96,14.28h0.69l0.35-0.6l-0.35-0.6h-0.69l-0.35,0.6L47.96,14.28z"/>
		</g>
		<g>
			<polygon id="XMLID_1421_" class="st0" points="24.53,28.46 24.09,27.7 24.53,26.93 25.41,26.93 25.85,27.7 25.41,28.46 			"/>
			<path class="st0" d="M25.41,28.62h-0.88c-0.06,0-0.11-0.03-0.14-0.08l-0.44-0.76c-0.03-0.05-0.03-0.11,0-0.16l0.44-0.76
				c0.03-0.05,0.08-0.08,0.14-0.08h0.88c0.06,0,0.11,0.03,0.14,0.08l0.44,0.76c0.03,0.05,0.03,0.11,0,0.16l-0.44,0.76
				C25.52,28.59,25.47,28.62,25.41,28.62z M24.62,28.3h0.69l0.35-0.6l-0.35-0.6h-0.69l-0.35,0.6L24.62,28.3z"/>
		</g>
		<g>
			<polygon id="XMLID_1420_" class="st0" points="47.9,28.46 47.46,27.7 47.9,26.93 48.78,26.93 49.22,27.7 48.78,28.46 			"/>
			<path class="st0" d="M48.78,28.62H47.9c-0.06,0-0.11-0.03-0.14-0.08l-0.44-0.76c-0.03-0.05-0.03-0.11,0-0.16l0.44-0.76
				c0.03-0.05,0.08-0.08,0.14-0.08h0.88c0.06,0,0.11,0.03,0.14,0.08l0.44,0.76c0.03,0.05,0.03,0.11,0,0.16l-0.44,0.76
				C48.89,28.59,48.84,28.62,48.78,28.62z M47.99,28.3h0.69l0.35-0.6l-0.35-0.6h-0.69l-0.35,0.6L47.99,28.3z"/>
		</g>
	</g>
	<path class="st0" d="M36.74,34.57H18.33c-2.9,0-5.27,2.08-5.27,4.63l4.83,24.79h18.86V34.57z"/>
	<path class="st0" d="M55.61,63.99l4.83-24.79c0-2.55-2.37-4.63-5.27-4.63H36.75v29.42H55.61z"/>
	<rect x="18.21" y="76.14" class="st0" width="12.45" height="18.75"/>
	<path class="st0" d="M17.29,92.05c0,0.77,0.63,1.4,1.4,1.4h11.76c0.77,0,1.4-0.63,1.4-1.4v-1.74c0-0.77-0.63-1.4-1.4-1.4H18.7
		c-0.77,0-1.4,0.63-1.4,1.4V92.05z"/>
	<path class="st0" d="M16.27,96.03c0,0.93,0.68,1.68,1.52,1.68h15.75c0.84,0,1.52-0.75,1.52-1.68v-2.09c0-0.93-0.68-1.68-1.52-1.68
		H17.8c-0.84,0-1.52,0.75-1.52,1.68V96.03z"/>
	<rect x="41.55" y="76.14" class="st0" width="12.45" height="18.75"/>
	<path class="st0" d="M54.92,92.05c0,0.77-0.63,1.4-1.4,1.4H41.76c-0.77,0-1.4-0.63-1.4-1.4v-1.74c0-0.77,0.63-1.4,1.4-1.4h11.76
		c0.77,0,1.4,0.63,1.4,1.4V92.05z"/>
	<path class="st0" d="M55.94,96.03c0,0.93-0.68,1.68-1.52,1.68H38.66c-0.84,0-1.52-0.75-1.52-1.68v-2.09c0-0.93,0.68-1.68,1.52-1.68
		h15.75c0.84,0,1.52,0.75,1.52,1.68V96.03z"/>
	<path class="st0" d="M52.54,43.28c0.4-2.07-1.13-4.05-3.24-4.11c-0.04,0-0.08,0-0.12,0H36.77h-0.04H24.32c-0.04,0-0.08,0-0.12,0
		c-2.11,0.06-3.64,2.04-3.24,4.11l2.6,13.35c0.32,1.63,1.74,2.81,3.4,2.81h19.56c1.66,0,3.09-1.18,3.4-2.81L52.54,43.28z"/>
	<path class="st0" d="M50.05,44.23c0.34-1.75-0.95-3.41-2.73-3.46c-0.03,0-0.07,0-0.1,0H36.77h-0.03H26.28c-0.03,0-0.07,0-0.1,0
		c-1.78,0.05-3.07,1.72-2.73,3.46l2.19,11.25c0.27,1.37,1.47,2.36,2.87,2.36h16.49c1.4,0,2.6-0.99,2.87-2.36L50.05,44.23z"/>
	<path class="st0" d="M46.33,45.65c0.24-1.26-0.68-2.46-1.96-2.49c-0.02,0-0.05,0-0.07,0h-7.53h-0.02h-7.53c-0.02,0-0.05,0-0.07,0
		c-1.28,0.04-2.21,1.24-1.96,2.49l1.58,8.1c0.19,0.99,1.06,1.7,2.07,1.7h11.88c1.01,0,1.87-0.71,2.07-1.7L46.33,45.65z"/>
	<path class="st0" d="M36.25,78.78H19.62c-2.62,0-4.76-0.81-4.76-1.81l4.36-9.69h17.02V78.78z"/>
	<path class="st0" d="M53.28,67.28l4.36,9.69c0,1-2.14,1.81-4.76,1.81H36.25v-11.5H53.28z"/>
	<rect x="62.67" y="57.23" class="st0" width="5.67" height="18.75"/>
	<polygon class="st0" points="64.37,85.5 59.33,80.91 59.34,80.9 59.32,80.89 63.91,75.85 65.68,77.46 62.7,80.74 65.98,83.73 	"/>
	<polygon class="st0" points="70.24,83.97 72.91,77.69 72.9,77.69 72.91,77.67 66.64,75 65.7,77.21 69.78,78.94 68.04,83.03 	"/>
	<circle class="st0" cx="65.52" cy="75.93" r="3.48"/>
	<g>
		<polygon id="XMLID_1419_" class="st0" points="66.36,77.47 67.21,75.98 66.36,74.5 64.64,74.5 63.79,75.98 64.64,77.47 		"/>
		<path class="st0" d="M66.36,77.63h-1.71c-0.06,0-0.11-0.03-0.14-0.08l-0.86-1.48c-0.03-0.05-0.03-0.11,0-0.16l0.86-1.48
			c0.03-0.05,0.08-0.08,0.14-0.08h1.71c0.06,0,0.11,0.03,0.14,0.08l0.86,1.48c0.03,0.05,0.03,0.11,0,0.16l-0.86,1.48
			C66.47,77.6,66.41,77.63,66.36,77.63z M64.74,77.3h1.52l0.76-1.32l-0.76-1.32h-1.52l-0.76,1.32L64.74,77.3z"/>
	</g>
	<rect x="62.74" y="46.76" class="st0" width="5.67" height="18.75"/>
	<path id="XMLID_1418_" class="st0" d="M61.36,39.17v8.44h8.44C69.8,42.94,66.02,39.17,61.36,39.17z"/>
	<circle class="st0" cx="65.58" cy="62" r="4.77"/>
	<rect x="4.9" y="46.76" class="st0" width="5.67" height="18.75"/>
	<rect x="4.9" y="58.29" class="st0" width="5.67" height="18.75"/>
	<path id="XMLID_1417_" class="st0" d="M11.96,39.17v8.44H3.52C3.52,42.94,7.3,39.17,11.96,39.17z"/>
	<circle class="st0" cx="7.74" cy="62" r="4.77"/>
	<polygon class="st0" points="8.87,86.56 13.91,81.97 13.9,81.96 13.92,81.95 9.33,76.91 7.56,78.52 10.54,81.8 7.26,84.79 	"/>
	<polygon class="st0" points="2.99,85.03 0.33,78.75 0.34,78.75 0.33,78.73 6.6,76.06 7.54,78.26 3.46,80 5.2,84.09 	"/>
	<circle class="st0" cx="7.72" cy="76.99" r="3.48"/>
	<g>
		<polygon id="XMLID_1416_" class="st0" points="6.54,64.08 5.34,62 6.54,59.93 8.94,59.93 10.13,62 8.94,64.08 		"/>
		<path class="st0" d="M8.94,64.24h-2.4c-0.06,0-0.11-0.03-0.14-0.08l-1.2-2.07c-0.03-0.05-0.03-0.11,0-0.16l1.2-2.07
			c0.03-0.05,0.08-0.08,0.14-0.08h2.4c0.06,0,0.11,0.03,0.14,0.08l1.2,2.07c0.03,0.05,0.03,0.11,0,0.16l-1.2,2.07
			C9.05,64.21,9,64.24,8.94,64.24z M6.64,63.91h2.21L9.95,62l-1.1-1.91H6.64L5.53,62L6.64,63.91z"/>
	</g>
	<g>
		<polygon id="XMLID_1415_" class="st0" points="64.38,64.08 63.18,62 64.38,59.93 66.77,59.93 67.97,62 66.77,64.08 		"/>
		<path class="st0" d="M66.77,64.24h-2.4c-0.06,0-0.11-0.03-0.14-0.08l-1.2-2.07c-0.03-0.05-0.03-0.11,0-0.16l1.2-2.07
			c0.03-0.05,0.08-0.08,0.14-0.08h2.4c0.06,0,0.11,0.03,0.14,0.08l1.2,2.07c0.03,0.05,0.03,0.11,0,0.16l-1.2,2.07
			C66.89,64.21,66.83,64.24,66.77,64.24z M64.47,63.91h2.21l1.1-1.91l-1.1-1.91h-2.21L63.37,62L64.47,63.91z"/>
	</g>
	<g>
		<polygon id="XMLID_1414_" class="st0" points="6.88,78.52 6.03,77.04 6.88,75.56 8.59,75.56 9.45,77.04 8.59,78.52 		"/>
		<path class="st0" d="M8.59,78.69H6.88c-0.06,0-0.11-0.03-0.14-0.08l-0.86-1.48c-0.03-0.05-0.03-0.11,0-0.16l0.86-1.48
			c0.03-0.05,0.08-0.08,0.14-0.08h1.71c0.06,0,0.11,0.03,0.14,0.08l0.86,1.48c0.03,0.05,0.03,0.11,0,0.16l-0.86,1.48
			C8.71,78.66,8.65,78.69,8.59,78.69z M6.98,78.36H8.5l0.76-1.32L8.5,75.72H6.98l-0.76,1.32L6.98,78.36z"/>
	</g>
	<g>
		<polygon id="XMLID_1413_" class="st0" points="18.35,39.36 17.8,38.41 18.35,37.47 19.43,37.47 19.98,38.41 19.43,39.36 		"/>
		<path class="st0" d="M19.43,39.52h-1.09c-0.06,0-0.11-0.03-0.14-0.08l-0.54-0.94c-0.03-0.05-0.03-0.11,0-0.16l0.54-0.94
			c0.03-0.05,0.08-0.08,0.14-0.08h1.09c0.06,0,0.11,0.03,0.14,0.08l0.54,0.94c0.03,0.05,0.03,0.11,0,0.16l-0.54,0.94
			C19.55,39.49,19.49,39.52,19.43,39.52z M18.44,39.19h0.9l0.45-0.78l-0.45-0.78h-0.9l-0.45,0.78L18.44,39.19z"/>
	</g>
	<g>
		<polygon id="XMLID_1412_" class="st0" points="54.07,39.36 53.52,38.41 54.07,37.47 55.16,37.47 55.7,38.41 55.16,39.36 		"/>
		<path class="st0" d="M55.16,39.52h-1.09c-0.06,0-0.11-0.03-0.14-0.08l-0.54-0.94c-0.03-0.05-0.03-0.11,0-0.16l0.54-0.94
			c0.03-0.05,0.08-0.08,0.14-0.08h1.09c0.06,0,0.11,0.03,0.14,0.08l0.54,0.94c0.03,0.05,0.03,0.11,0,0.16l-0.54,0.94
			C55.27,39.49,55.22,39.52,55.16,39.52z M54.16,39.19h0.9l0.45-0.78l-0.45-0.78h-0.9l-0.45,0.78L54.16,39.19z"/>
	</g>
	<g>
		<polygon id="XMLID_1411_" class="st0" points="19.78,62.67 19.23,61.73 19.78,60.79 20.87,60.79 21.41,61.73 20.87,62.67 		"/>
		<path class="st0" d="M20.87,62.84h-1.09c-0.06,0-0.11-0.03-0.14-0.08l-0.54-0.94c-0.03-0.05-0.03-0.11,0-0.16l0.54-0.94
			c0.03-0.05,0.08-0.08,0.14-0.08h1.09c0.06,0,0.11,0.03,0.14,0.08l0.54,0.94c0.03,0.05,0.03,0.11,0,0.16l-0.54,0.94
			C20.98,62.81,20.92,62.84,20.87,62.84z M19.87,62.51h0.9l0.45-0.78l-0.45-0.78h-0.9l-0.45,0.78L19.87,62.51z"/>
	</g>
	<g>
		<polygon id="XMLID_1410_" class="st0" points="52.2,62.86 51.65,61.92 52.2,60.98 53.28,60.98 53.83,61.92 53.28,62.86 		"/>
		<path class="st0" d="M53.28,63.03H52.2c-0.06,0-0.11-0.03-0.14-0.08L51.51,62c-0.03-0.05-0.03-0.11,0-0.16l0.54-0.94
			c0.03-0.05,0.08-0.08,0.14-0.08h1.09c0.06,0,0.11,0.03,0.14,0.08l0.54,0.94c0.03,0.05,0.03,0.11,0,0.16l-0.54,0.94
			C53.4,63,53.34,63.03,53.28,63.03z M52.29,62.7h0.9l0.45-0.78l-0.45-0.78h-0.9l-0.45,0.78L52.29,62.7z"/>
	</g>
	<g>
		<polygon id="XMLID_1409_" class="st0" points="19.87,70.24 19.33,69.3 19.87,68.35 20.96,68.35 21.5,69.3 20.96,70.24 		"/>
		<path class="st0" d="M20.96,70.4h-1.09c-0.06,0-0.11-0.03-0.14-0.08l-0.54-0.94c-0.03-0.05-0.03-0.11,0-0.16l0.54-0.94
			c0.03-0.05,0.08-0.08,0.14-0.08h1.09c0.06,0,0.11,0.03,0.14,0.08l0.54,0.94c0.03,0.05,0.03,0.11,0,0.16l-0.54,0.94
			C21.07,70.37,21.02,70.4,20.96,70.4z M19.97,70.07h0.9l0.45-0.78l-0.45-0.78h-0.9l-0.45,0.78L19.97,70.07z"/>
	</g>
	<g>
		<polygon id="XMLID_1408_" class="st0" points="17.26,77.09 16.71,76.14 17.26,75.2 18.35,75.2 18.89,76.14 18.35,77.09 		"/>
		<path class="st0" d="M18.35,77.25h-1.09c-0.06,0-0.11-0.03-0.14-0.08l-0.54-0.94c-0.03-0.05-0.03-0.11,0-0.16l0.54-0.94
			c0.03-0.05,0.08-0.08,0.14-0.08h1.09c0.06,0,0.11,0.03,0.14,0.08l0.54,0.94c0.03,0.05,0.03,0.11,0,0.16l-0.54,0.94
			C18.46,77.22,18.4,77.25,18.35,77.25z M17.35,76.92h0.9l0.45-0.78l-0.45-0.78h-0.9l-0.45,0.78L17.35,76.92z"/>
	</g>
	<g>
		<polygon id="XMLID_1407_" class="st0" points="54.07,77.09 53.52,76.14 54.07,75.2 55.16,75.2 55.7,76.14 55.16,77.09 		"/>
		<path class="st0" d="M55.16,77.25h-1.09c-0.06,0-0.11-0.03-0.14-0.08l-0.54-0.94c-0.03-0.05-0.03-0.11,0-0.16l0.54-0.94
			c0.03-0.05,0.08-0.08,0.14-0.08h1.09c0.06,0,0.11,0.03,0.14,0.08l0.54,0.94c0.03,0.05,0.03,0.11,0,0.16l-0.54,0.94
			C55.27,77.22,55.22,77.25,55.16,77.25z M54.16,76.92h0.9l0.45-0.78l-0.45-0.78h-0.9l-0.45,0.78L54.16,76.92z"/>
	</g>
	<g>
		<polygon id="XMLID_1406_" class="st0" points="51.11,70.24 50.56,69.3 51.11,68.35 52.2,68.35 52.74,69.3 52.2,70.24 		"/>
		<path class="st0" d="M52.2,70.4h-1.09c-0.06,0-0.11-0.03-0.14-0.08l-0.54-0.94c-0.03-0.05-0.03-0.11,0-0.16l0.54-0.94
			c0.03-0.05,0.08-0.08,0.14-0.08h1.09c0.06,0,0.11,0.03,0.14,0.08l0.54,0.94c0.03,0.05,0.03,0.11,0,0.16l-0.54,0.94
			C52.31,70.37,52.25,70.4,52.2,70.4z M51.2,70.07h0.9l0.45-0.78l-0.45-0.78h-0.9l-0.45,0.78L51.2,70.07z"/>
	</g>
</g>
</svg>
