<?xml version="1.0" encoding="utf-8"?>
<!-- Generator: Adobe Illustrator 27.2.0, SVG Export Plug-In . SVG Version: 6.00 Build 0)  -->
<svg version="1.1" id="Layer_1" xmlns="http://www.w3.org/2000/svg" xmlns:xlink="http://www.w3.org/1999/xlink" x="0px" y="0px"
	 viewBox="0 0 98.99 92.98" style="enable-background:new 0 0 98.99 92.98;" xml:space="preserve">
<style type="text/css">
	.st0{fill:none;stroke:#34BF70;stroke-width:0.5;stroke-miterlimit:10;}
</style>
<g>
	<rect id="XMLID_1469_" x="41.83" y="61.64" class="st0" width="13.94" height="9.17"/>
	<g>
		<rect x="32.25" y="0.25" class="st0" width="0.78" height="16.78"/>
		<rect x="65.39" y="0.25" class="st0" width="0.78" height="16.78"/>
		<rect id="XMLID_1468_" x="41.83" y="29.46" class="st0" width="13.94" height="4.25"/>
		<circle id="XMLID_1467_" class="st0" cx="65.11" cy="17.03" r="2.4"/>
		<path id="XMLID_1466_" class="st0" d="M63.05,22.63h-1.74c-1.13,0-2.06-0.93-2.06-2.06v-7.08c0-1.13,0.93-2.06,2.06-2.06h1.74
			c1.13,0,2.06,0.93,2.06,2.06v7.08C65.11,21.7,64.18,22.63,63.05,22.63z"/>
		<circle id="XMLID_1465_" class="st0" cx="33.48" cy="17.03" r="2.4"/>
		<path id="XMLID_1464_" class="st0" d="M36.41,22.63L36.41,22.63c1.61,0,2.93-1.32,2.93-2.93v-5.34c0-1.61-1.32-2.93-2.93-2.93l0,0
			c-1.61,0-2.93,1.32-2.93,2.93v5.34C33.48,21.31,34.8,22.63,36.41,22.63z"/>
		<rect id="XMLID_1463_" x="40.58" y="22.76" class="st0" width="17.68" height="2.38"/>
		<path class="st0" d="M48.45,2.3c-6.84,0-12.38,5.54-12.38,12.38v8.68c0,0,0,0.01,0,0.01h13.35V2.3H48.45z"/>
		<rect x="36.07" y="24.96" class="st0" width="13.35" height="5.22"/>
		<path class="st0" d="M62.52,23.36v-8.68c0-6.84-5.54-12.38-12.38-12.38h-0.73v21.07h13.1C62.52,23.37,62.52,23.37,62.52,23.36z"/>
		<rect x="49.42" y="24.96" class="st0" width="13.1" height="5.22"/>
		<g>
			<polygon id="XMLID_1462_" class="st0" points="37.71,22.12 37.29,21.38 37.71,20.63 38.57,20.63 39,21.38 38.57,22.12 			"/>
			<path class="st0" d="M38.57,22.28h-0.86c-0.06,0-0.11-0.03-0.14-0.08l-0.43-0.74c-0.03-0.05-0.03-0.11,0-0.16l0.43-0.74
				c0.03-0.05,0.08-0.08,0.14-0.08h0.86c0.06,0,0.11,0.03,0.14,0.08l0.43,0.74c0.03,0.05,0.03,0.11,0,0.16l-0.43,0.74
				C38.68,22.25,38.63,22.28,38.57,22.28z M37.81,21.96h0.67l0.34-0.58l-0.34-0.58h-0.67l-0.34,0.58L37.81,21.96z"/>
		</g>
		<g>
			<polygon id="XMLID_1461_" class="st0" points="44.66,5.71 44.24,4.97 44.66,4.23 45.52,4.23 45.95,4.97 45.52,5.71 			"/>
			<path class="st0" d="M45.52,5.87h-0.86c-0.06,0-0.11-0.03-0.14-0.08L44.1,5.05c-0.03-0.05-0.03-0.11,0-0.16l0.43-0.74
				c0.03-0.05,0.08-0.08,0.14-0.08h0.86c0.06,0,0.11,0.03,0.14,0.08l0.43,0.74c0.03,0.05,0.03,0.11,0,0.16l-0.43,0.74
				C45.63,5.84,45.58,5.87,45.52,5.87z M44.76,5.55h0.67l0.34-0.58l-0.34-0.58h-0.67l-0.34,0.58L44.76,5.55z"/>
		</g>
		<g>
			<polygon id="XMLID_1460_" class="st0" points="53.96,5.71 53.53,4.97 53.96,4.23 54.82,4.23 55.25,4.97 54.82,5.71 			"/>
			<path class="st0" d="M54.82,5.87h-0.86c-0.06,0-0.11-0.03-0.14-0.08l-0.43-0.74c-0.03-0.05-0.03-0.11,0-0.16l0.43-0.74
				c0.03-0.05,0.08-0.08,0.14-0.08h0.86c0.06,0,0.11,0.03,0.14,0.08l0.43,0.74c0.03,0.05,0.03,0.11,0,0.16l-0.43,0.74
				C54.93,5.84,54.88,5.87,54.82,5.87z M54.05,5.55h0.67l0.34-0.58l-0.34-0.58h-0.67l-0.34,0.58L54.05,5.55z"/>
		</g>
		<g>
			<polygon id="XMLID_1459_" class="st0" points="60.48,22.12 60.05,21.38 60.48,20.63 61.34,20.63 61.77,21.38 61.34,22.12 			"/>
			<path class="st0" d="M61.34,22.28h-0.86c-0.06,0-0.11-0.03-0.14-0.08l-0.43-0.74c-0.03-0.05-0.03-0.11,0-0.16l0.43-0.74
				c0.03-0.05,0.08-0.08,0.14-0.08h0.86c0.06,0,0.11,0.03,0.14,0.08l0.43,0.74c0.03,0.05,0.03,0.11,0,0.16l-0.43,0.74
				C61.45,22.25,61.39,22.28,61.34,22.28z M60.57,21.96h0.67l0.34-0.58l-0.34-0.58h-0.67l-0.34,0.58L60.57,21.96z"/>
		</g>
		<g>
			<polygon id="XMLID_1458_" class="st0" points="37.71,28.31 37.29,27.57 37.71,26.82 38.57,26.82 39,27.57 38.57,28.31 			"/>
			<path class="st0" d="M38.57,28.47h-0.86c-0.06,0-0.11-0.03-0.14-0.08l-0.43-0.74c-0.03-0.05-0.03-0.11,0-0.16l0.43-0.74
				c0.03-0.05,0.08-0.08,0.14-0.08h0.86c0.06,0,0.11,0.03,0.14,0.08l0.43,0.74c0.03,0.05,0.03,0.11,0,0.16l-0.43,0.74
				C38.68,28.44,38.63,28.47,38.57,28.47z M37.81,28.15h0.67l0.34-0.58l-0.34-0.58h-0.67l-0.34,0.58L37.81,28.15z"/>
		</g>
		<g>
			<polygon id="XMLID_1457_" class="st0" points="60.48,28.31 60.05,27.57 60.48,26.82 61.34,26.82 61.77,27.57 61.34,28.31 			"/>
			<path class="st0" d="M61.34,28.47h-0.86c-0.06,0-0.11-0.03-0.14-0.08l-0.43-0.74c-0.03-0.05-0.03-0.11,0-0.16l0.43-0.74
				c0.03-0.05,0.08-0.08,0.14-0.08h0.86c0.06,0,0.11,0.03,0.14,0.08l0.43,0.74c0.03,0.05,0.03,0.11,0,0.16l-0.43,0.74
				C61.45,28.44,61.39,28.47,61.34,28.47z M60.57,28.15h0.67l0.34-0.58l-0.34-0.58h-0.67l-0.34,0.58L60.57,28.15z"/>
		</g>
		<g>
			
				<ellipse id="XMLID_1456_" transform="matrix(0.1602 -0.9871 0.9871 0.1602 23.0225 55.1076)" class="st0" cx="43.9" cy="14.02" rx="5.27" ry="5.27"/>
			
				<ellipse id="XMLID_1455_" transform="matrix(0.7071 -0.7071 0.7071 0.7071 2.9406 35.1473)" class="st0" cx="43.9" cy="14.02" rx="4.41" ry="4.41"/>
			
				<ellipse id="XMLID_1454_" transform="matrix(0.2298 -0.9732 0.9732 0.2298 20.1627 53.5245)" class="st0" cx="43.9" cy="14.02" rx="3" ry="3"/>
		</g>
		<g>
			
				<ellipse id="XMLID_1453_" transform="matrix(0.1602 -0.9871 0.9871 0.1602 31.9529 65.6041)" class="st0" cx="54.53" cy="14.02" rx="5.27" ry="5.27"/>
			
				<ellipse id="XMLID_1452_" transform="matrix(0.1602 -0.9871 0.9871 0.1602 31.9529 65.6041)" class="st0" cx="54.53" cy="14.02" rx="4.41" ry="4.41"/>
			
				<ellipse id="XMLID_1451_" transform="matrix(0.2298 -0.9732 0.9732 0.2298 28.3534 63.8739)" class="st0" cx="54.53" cy="14.02" rx="3" ry="3"/>
		</g>
	</g>
	
		<rect x="72.63" y="53.16" transform="matrix(0.8923 -0.4515 0.4515 0.8923 -16.44 42.9422)" class="st0" width="18.27" height="5.52"/>
	<polygon class="st0" points="98.68,48.59 96.91,54.99 96.9,54.99 96.89,55.01 90.49,53.23 91.12,50.99 95.28,52.14 96.44,47.97 	
		"/>
	<polygon class="st0" points="94.77,44.16 88.14,44.6 88.14,44.61 88.12,44.62 88.56,51.24 90.89,51.09 90.6,46.78 94.92,46.49 	"/>
	<path class="st0" d="M90.92,48.58c-1.78-0.58-3.7,0.39-4.28,2.17c-0.58,1.78,0.39,3.7,2.17,4.28c1.78,0.58,3.7-0.39,4.28-2.17
		C93.67,51.08,92.7,49.16,90.92,48.58z"/>
	<g>
		<polygon id="XMLID_1450_" class="st0" points="90.83,50.4 89.16,50.31 88.25,51.71 89,53.19 90.67,53.28 91.58,51.89 		"/>
		<path class="st0" d="M90.67,53.44C90.66,53.44,90.66,53.44,90.67,53.44l-1.67-0.09c-0.06,0-0.11-0.04-0.13-0.09l-0.75-1.49
			c-0.03-0.05-0.02-0.11,0.01-0.16l0.91-1.4c0.03-0.05,0.09-0.07,0.14-0.07l1.66,0.09c0.06,0,0.11,0.04,0.13,0.09l0.75,1.49
			c0.03,0.05,0.02,0.11-0.01,0.16l-0.91,1.4C90.77,53.42,90.72,53.44,90.67,53.44z M89.1,53.04l1.48,0.08l0.81-1.24l-0.67-1.32
			l-1.48-0.08l-0.81,1.24L89.1,53.04z"/>
	</g>
	<rect x="73.28" y="44.2" class="st0" width="5.52" height="18.27"/>
	<path id="XMLID_1449_" class="st0" d="M71.93,36.8v8.22h8.22C80.15,40.48,76.47,36.8,71.93,36.8z"/>
	<circle class="st0" cx="76.04" cy="59.05" r="4.65"/>
	<rect x="19.79" y="44.2" class="st0" width="5.52" height="18.27"/>
	
		<rect x="14.68" y="47.06" transform="matrix(0.4245 -0.9054 0.9054 0.4245 -40.8379 48.1367)" class="st0" width="5.52" height="18.27"/>
	<path id="XMLID_1448_" class="st0" d="M26.66,36.8v8.22h-8.22C18.44,40.48,22.12,36.8,26.66,36.8z"/>
	<circle class="st0" cx="22.55" cy="59.05" r="4.65"/>
	<polygon class="st0" points="0.31,49.38 2.28,55.72 2.29,55.72 2.3,55.74 8.64,53.77 7.95,51.54 3.82,52.82 2.54,48.69 	"/>
	<polygon class="st0" points="4.1,44.83 10.73,45.07 10.73,45.08 10.76,45.08 10.51,51.72 8.18,51.63 8.34,47.32 4.01,47.16 	"/>
	<path class="st0" d="M8.07,49.13c1.76-0.64,3.71,0.27,4.35,2.04c0.64,1.76-0.27,3.71-2.04,4.35c-1.76,0.64-3.71-0.27-4.35-2.04
		C5.4,51.71,6.31,49.77,8.07,49.13z"/>
	<g>
		<polygon id="XMLID_1447_" class="st0" points="21.39,61.07 20.22,59.05 21.39,57.02 23.72,57.02 24.89,59.05 23.72,61.07 		"/>
		<path class="st0" d="M23.72,61.23h-2.33c-0.06,0-0.11-0.03-0.14-0.08l-1.17-2.02c-0.03-0.05-0.03-0.11,0-0.16l1.17-2.02
			c0.03-0.05,0.08-0.08,0.14-0.08h2.33c0.06,0,0.11,0.03,0.14,0.08l1.17,2.02c0.03,0.05,0.03,0.11,0,0.16l-1.17,2.02
			C23.83,61.2,23.78,61.23,23.72,61.23z M21.48,60.91h2.15l1.07-1.86l-1.07-1.86h-2.15l-1.07,1.86L21.48,60.91z"/>
	</g>
	<g>
		<polygon id="XMLID_1446_" class="st0" points="74.87,61.07 73.71,59.05 74.87,57.02 77.21,57.02 78.38,59.05 77.21,61.07 		"/>
		<path class="st0" d="M77.21,61.23h-2.33c-0.06,0-0.11-0.03-0.14-0.08l-1.17-2.02c-0.03-0.05-0.03-0.11,0-0.16l1.17-2.02
			c0.03-0.05,0.08-0.08,0.14-0.08h2.33c0.06,0,0.11,0.03,0.14,0.08l1.17,2.02c0.03,0.05,0.03,0.11,0,0.16l-1.17,2.02
			C77.32,61.2,77.27,61.23,77.21,61.23z M74.97,60.91h2.15l1.07-1.86l-1.07-1.86h-2.15l-1.07,1.86L74.97,60.91z"/>
	</g>
	<g>
		<polygon id="XMLID_1445_" class="st0" points="8.22,50.95 9.88,50.81 10.84,52.17 10.13,53.68 8.47,53.82 7.52,52.46 		"/>
		<path class="st0" d="M8.47,53.98c-0.05,0-0.1-0.03-0.13-0.07l-0.95-1.37c-0.03-0.05-0.04-0.11-0.01-0.16l0.71-1.51
			c0.02-0.05,0.07-0.09,0.13-0.09l1.66-0.14c0.06,0,0.11,0.02,0.14,0.07l0.95,1.37c0.03,0.05,0.04,0.11,0.01,0.16l-0.71,1.51
			c-0.02,0.05-0.07,0.09-0.13,0.09l-1.66,0.14C8.48,53.98,8.47,53.98,8.47,53.98z M7.7,52.44l0.85,1.22l1.48-0.13l0.63-1.34
			l-0.85-1.22L8.33,51.1L7.7,52.44z"/>
	</g>
	<g>
		<path class="st0" d="M32.76,32.68c-2.55,0-4.63,1.69-4.63,3.76v22.19v0.84v3.01c0,2.07,2.08,3.76,4.63,3.76h16.24v-6.76v-0.84
			V32.68H32.76z"/>
		<path class="st0" d="M66.16,32.68H49.01v6.95v0.65v25.94h17.15c2.55,0,4.63-1.69,4.63-3.76V40.28v-0.65v-3.19
			C70.79,34.37,68.71,32.68,66.16,32.68z"/>
	</g>
	<path class="st0" d="M67.41,92.73H29.8c-6.14,0-11.12-4.98-11.12-11.12v-0.22c0-6.14,4.98-11.12,11.12-11.12h37.61
		c6.14,0,11.12,4.98,11.12,11.12v0.22C78.53,87.75,73.55,92.73,67.41,92.73z"/>
	<path class="st0" d="M66.08,89.91h-34c-5.55,0-10.05-3.78-10.05-8.44V81.3c0-4.66,4.5-8.44,10.05-8.44h34
		c5.55,0,10.05,3.78,10.05,8.44v0.17C76.13,86.13,71.63,89.91,66.08,89.91z"/>
	<g>
		<circle id="XMLID_1444_" class="st0" cx="67.6" cy="81.38" r="8.53"/>
		<circle id="XMLID_1443_" class="st0" cx="67.6" cy="81.38" r="7.13"/>
	</g>
	<g>
		<circle id="XMLID_1442_" class="st0" cx="49.02" cy="81.38" r="8.53"/>
		<circle id="XMLID_1441_" class="st0" cx="49.02" cy="81.38" r="7.13"/>
	</g>
	<g>
		
			<ellipse id="XMLID_1440_" transform="matrix(0.9239 -0.3827 0.3827 0.9239 -28.8181 17.8908)" class="st0" cx="30.56" cy="81.38" rx="8.53" ry="8.53"/>
		
			<ellipse id="XMLID_1439_" transform="matrix(0.9239 -0.3827 0.3827 0.9239 -28.8181 17.8908)" class="st0" cx="30.56" cy="81.38" rx="7.13" ry="7.13"/>
	</g>
	<g>
		<path class="st0" d="M44.86,43.16h-6.02h-5.7c-0.89,0-1.63,0.64-1.63,1.43v8.44v0.32v1.14c0,0.79,0.73,1.43,1.63,1.43h5.7h6.02
			c0.89,0,1.63-0.64,1.63-1.43v-8.44v-0.25v-1.21C46.49,43.81,45.76,43.16,44.86,43.16z"/>
		<path class="st0" d="M44.05,44.04h-5.19h-4.92c-0.77,0-1.4,0.55-1.4,1.23v7.27v0.27v0.99c0,0.68,0.63,1.23,1.4,1.23h4.92h5.19
			c0.77,0,1.4-0.55,1.4-1.23v-7.27v-0.21v-1.05C45.46,44.6,44.82,44.04,44.05,44.04z"/>
		<path class="st0" d="M42.96,45.23h-4.07h-3.85c-0.6,0-1.1,0.43-1.1,0.96v5.7v0.22v0.77c0,0.53,0.49,0.96,1.1,0.96h3.85h4.07
			c0.6,0,1.1-0.43,1.1-0.96v-5.7v-0.17V46.2C44.06,45.67,43.56,45.23,42.96,45.23z"/>
	</g>
	<g>
		<path class="st0" d="M57.58,45.97h-3.37h-3.19c-0.5,0-0.91,0.36-0.91,0.8v4.73v0.18v0.64c0,0.44,0.41,0.8,0.91,0.8h3.19h3.37
			c0.5,0,0.91-0.36,0.91-0.8v-4.73v-0.14v-0.68C58.49,46.33,58.08,45.97,57.58,45.97z"/>
		<path class="st0" d="M57.13,46.46h-2.91h-2.75c-0.43,0-0.79,0.31-0.79,0.69v4.08v0.15v0.55c0,0.38,0.35,0.69,0.79,0.69h2.75h2.91
			c0.43,0,0.79-0.31,0.79-0.69v-4.08v-0.12v-0.59C57.91,46.77,57.56,46.46,57.13,46.46z"/>
		<path class="st0" d="M56.51,47.13h-2.28h-2.16c-0.34,0-0.62,0.24-0.62,0.54v3.19v0.12v0.43c0,0.3,0.28,0.54,0.62,0.54h2.16h2.28
			c0.34,0,0.62-0.24,0.62-0.54v-3.19v-0.09v-0.46C57.13,47.37,56.85,47.13,56.51,47.13z"/>
	</g>
	<g>
		<path class="st0" d="M67.93,45.97h-3.37h-3.19c-0.5,0-0.91,0.36-0.91,0.8v4.73v0.18v0.64c0,0.44,0.41,0.8,0.91,0.8h3.19h3.37
			c0.5,0,0.91-0.36,0.91-0.8v-4.73v-0.14v-0.68C68.84,46.33,68.44,45.97,67.93,45.97z"/>
		<path class="st0" d="M67.48,46.46h-2.91h-2.75c-0.43,0-0.79,0.31-0.79,0.69v4.08v0.15v0.55c0,0.38,0.35,0.69,0.79,0.69h2.75h2.91
			c0.43,0,0.79-0.31,0.79-0.69v-4.08v-0.12v-0.59C68.27,46.77,67.91,46.46,67.48,46.46z"/>
		<path class="st0" d="M66.87,47.13h-2.28h-2.16c-0.34,0-0.62,0.24-0.62,0.54v3.19v0.12v0.43c0,0.3,0.28,0.54,0.62,0.54h2.16h2.28
			c0.34,0,0.62-0.24,0.62-0.54v-3.19v-0.09v-0.46C67.48,47.37,67.21,47.13,66.87,47.13z"/>
	</g>
	<g>
		<polygon id="XMLID_1438_" class="st0" points="31.72,37.52 31.19,36.61 31.72,35.69 32.78,35.69 33.31,36.61 32.78,37.52 		"/>
		<path class="st0" d="M32.78,37.68h-1.06c-0.06,0-0.11-0.03-0.14-0.08l-0.53-0.92c-0.03-0.05-0.03-0.11,0-0.16l0.53-0.92
			c0.03-0.05,0.08-0.08,0.14-0.08h1.06c0.06,0,0.11,0.03,0.14,0.08l0.53,0.92c0.03,0.05,0.03,0.11,0,0.16l-0.53,0.92
			C32.89,37.65,32.84,37.68,32.78,37.68z M31.81,37.36h0.88l0.44-0.76l-0.44-0.76h-0.88l-0.44,0.76L31.81,37.36z"/>
	</g>
	<g>
		<polygon id="XMLID_1437_" class="st0" points="66.52,37.52 65.99,36.61 66.52,35.69 67.58,35.69 68.11,36.61 67.58,37.52 		"/>
		<path class="st0" d="M67.58,37.68h-1.06c-0.06,0-0.11-0.03-0.14-0.08l-0.53-0.92c-0.03-0.05-0.03-0.11,0-0.16l0.53-0.92
			c0.03-0.05,0.08-0.08,0.14-0.08h1.06c0.06,0,0.11,0.03,0.14,0.08l0.53,0.92c0.03,0.05,0.03,0.11,0,0.16l-0.53,0.92
			C67.69,37.65,67.63,37.68,67.58,37.68z M66.61,37.36h0.88l0.44-0.76l-0.44-0.76h-0.88l-0.44,0.76L66.61,37.36z"/>
	</g>
	<g>
		<polygon id="XMLID_1436_" class="st0" points="31.72,63.39 31.19,62.47 31.72,61.55 32.78,61.55 33.31,62.47 32.78,63.39 		"/>
		<path class="st0" d="M32.78,63.55h-1.06c-0.06,0-0.11-0.03-0.14-0.08l-0.53-0.92c-0.03-0.05-0.03-0.11,0-0.16l0.53-0.92
			c0.03-0.05,0.08-0.08,0.14-0.08h1.06c0.06,0,0.11,0.03,0.14,0.08l0.53,0.92c0.03,0.05,0.03,0.11,0,0.16l-0.53,0.92
			C32.89,63.51,32.84,63.55,32.78,63.55z M31.81,63.23h0.88l0.44-0.76l-0.44-0.76h-0.88l-0.44,0.76L31.81,63.23z"/>
	</g>
	<g>
		<polygon id="XMLID_1435_" class="st0" points="66.52,63.39 65.99,62.47 66.52,61.55 67.58,61.55 68.11,62.47 67.58,63.39 		"/>
		<path class="st0" d="M67.58,63.55h-1.06c-0.06,0-0.11-0.03-0.14-0.08l-0.53-0.92c-0.03-0.05-0.03-0.11,0-0.16l0.53-0.92
			c0.03-0.05,0.08-0.08,0.14-0.08h1.06c0.06,0,0.11,0.03,0.14,0.08l0.53,0.92c0.03,0.05,0.03,0.11,0,0.16l-0.53,0.92
			C67.69,63.51,67.63,63.55,67.58,63.55z M66.61,63.23h0.88l0.44-0.76l-0.44-0.76h-0.88l-0.44,0.76L66.61,63.23z"/>
	</g>
</g>
</svg>
