<?xml version="1.0" encoding="iso-8859-1"?>
<!-- Uploaded to: SVG Repo, www.svgrepo.com, Generator: SVG Repo Mixer Tools -->
<svg version="1.1" id="Layer_1" xmlns="http://www.w3.org/2000/svg" xmlns:xlink="http://www.w3.org/1999/xlink" 
	 viewBox="0 0 512 512" xml:space="preserve">
<path style="fill:#9B9DA6;" d="M361.915,177.769h94.527v54.045h-94.527V177.769z"/>
<path style="fill:#3A3839;" d="M441.084,288.895V177.769h30.719v111.126H441.084z"/>
<path style="fill:#9B9DA6;" d="M475.87,327.306c0-10.73-8.697-19.427-19.427-19.427c-10.73,0-19.427,8.697-19.427,19.427
	c0,2.44,0.454,4.774,1.276,6.925h-32.979c-0.304-2.266-0.475-4.576-0.475-6.925c0-28.502,23.106-51.607,51.607-51.607
	s51.607,23.106,51.607,51.607c0,2.35-0.171,4.658-0.475,6.925h-32.979C475.415,332.08,475.87,329.746,475.87,327.306z"/>
<path style="fill:#B7B9C0;" d="M150.085,231.814H55.558v-54.045h94.527L150.085,231.814L150.085,231.814z"/>
<path style="fill:#444242;" d="M40.198,288.895V177.769h30.719v111.126H40.198z"/>
<path style="fill:#B7B9C0;" d="M36.131,327.306c0-10.73,8.697-19.427,19.427-19.427s19.427,8.697,19.427,19.427
	c0,2.44-0.454,4.774-1.276,6.925h32.979c0.304-2.266,0.475-4.576,0.475-6.925c0-28.502-23.106-51.607-51.607-51.607
	S3.949,298.804,3.949,327.306c0,2.35,0.171,4.658,0.475,6.925h32.979C36.585,332.08,36.131,329.746,36.131,327.306z"/>
<path style="fill:#EDEEF0;" d="M256,0c-76.814,0-139.306,62.493-139.306,139.306v85.656H256h139.306v-85.656
	C395.306,62.493,332.814,0,256,0z"/>
<g>
	<path id="SVGCleanerId_0" style="fill:#DCDEE2;" d="M395.306,139.306C395.306,62.493,332.814,0,256,0v224.963h139.306V139.306z"/>
</g>
<g>
	<path id="SVGCleanerId_0_1_" style="fill:#DCDEE2;" d="M395.306,139.306C395.306,62.493,332.814,0,256,0v224.963h139.306V139.306z"
		/>
</g>
<g>
	<path id="SVGCleanerId_0_2_" style="fill:#DCDEE2;" d="M395.306,139.306C395.306,62.493,332.814,0,256,0v224.963h139.306V139.306z"
		/>
</g>
<polygon style="fill:#444242;" points="272.696,478.609 272.696,408.07 256,408.07 239.304,408.07 239.304,478.609 200.743,478.609 
	200.743,512 256,512 311.257,512 311.257,478.609 "/>
<polygon style="fill:#3A3839;" points="272.696,478.609 272.696,408.07 256,408.07 256,478.609 256,495.304 256,512 311.257,512 
	311.257,478.609 "/>
<polygon style="fill:#61A2EF;" points="256,205.036 116.694,205.036 116.694,416.943 256,416.943 395.306,416.943 395.306,205.036 
	"/>
<rect x="256" y="205.034" style="fill:#528ACF;" width="139.309" height="211.901"/>
<path style="fill:#EDEEF0;" d="M256,229.547c-41.513,0-75.167,33.653-75.167,75.167c16.739,0,45.047,0,75.167,0
	c25.763,0,52.851,0,75.167,0C331.167,263.2,297.513,229.547,256,229.547z"/>
<path style="fill:#DCDEE2;" d="M256,229.547v75.167c25.763,0,52.851,0,75.167,0C331.167,263.2,297.513,229.547,256,229.547z"/>
<polygon style="fill:#C43D2C;" points="261.225,285.883 256.628,279.461 285.38,250.711 290.888,256.219 "/>
<circle style="fill:#F74D37;" cx="256" cy="285.885" r="8.858"/>
<path style="fill:#C43D2C;" d="M264.858,285.883c0,4.892-3.966,8.858-8.858,8.858c0-4.933,0-13.17,0-17.715
	C260.892,277.025,264.858,280.99,264.858,285.883z"/>
<circle style="fill:#EDEEF0;" cx="180.836" cy="367.304" r="15.255"/>
<circle style="fill:#DCDEE2;" cx="331.164" cy="367.304" r="15.255"/>
<circle style="fill:#EDEEF0;" cx="256" cy="367.304" r="15.255"/>
<path style="fill:#DCDEE2;" d="M256,352.049c8.426,0,15.255,6.83,15.255,15.255S264.426,382.56,256,382.56
	C256,372.117,256,359.639,256,352.049z"/>
<circle style="fill:#F74D37;" cx="256" cy="100.597" r="47.839"/>
<path style="fill:#C43D2C;" d="M256,52.756c26.42,0,47.839,21.418,47.839,47.839S282.42,148.433,256,148.433
	C256,126.152,256,66.114,256,52.756z"/>
<circle style="fill:#EDEEF0;" cx="256" cy="100.597" r="26.178"/>
<path style="fill:#DCDEE2;" d="M256,74.417c14.457,0,26.178,11.72,26.178,26.178s-11.72,26.178-26.178,26.178
	C256,109.919,256,96.199,256,74.417z"/>
<circle style="fill:#444242;" cx="256" cy="100.597" r="7.858"/>
<path style="fill:#3A3839;" d="M256,92.739c4.339,0,7.856,3.517,7.856,7.856s-3.517,7.856-7.856,7.856
	C256,103.901,256,97.644,256,92.739z"/>
</svg>