<?xml version="1.0" encoding="iso-8859-1"?>
<!-- Uploaded to: SVG Repo, www.svgrepo.com, Generator: SVG Repo Mixer Tools -->
<svg version="1.1" id="Layer_1" xmlns="http://www.w3.org/2000/svg" xmlns:xlink="http://www.w3.org/1999/xlink" 
	 viewBox="0 0 512 512" xml:space="preserve">
<path style="fill:#6F6F6F;" d="M337.083,512H174.917c-50.751,0-92.04-41.289-92.04-92.04s41.288-92.039,92.04-92.039h16.446v33.391
	h-16.446c-32.338,0-58.648,26.31-58.648,58.647c0,32.339,26.31,58.648,58.648,58.648h162.166c32.338,0,58.648-26.31,58.648-58.648
	s-26.31-58.647-58.648-58.647h-16.446v-33.391h16.446c50.751,0,92.04,41.289,92.04,92.039C429.123,470.711,387.834,512,337.083,512z
	"/>
<path style="fill:#444444;" d="M337.083,327.92h-16.446v33.391h16.446c32.338,0,58.648,26.31,58.648,58.647
	c0,32.339-26.31,58.648-58.648,58.648H256v33.391h81.083c50.751,0,92.04-41.289,92.04-92.04
	C429.123,369.21,387.834,327.92,337.083,327.92z"/>
<path style="fill:#92E5EA;" d="M337.332,359.072H174.668v-56.43h162.666v56.43H337.332z"/>
<rect x="150.873" y="249.912" style="fill:#C8F9FA;" width="33.391" height="35.762"/>
<rect x="195.094" y="249.912" style="fill:#92E5EA;" width="33.391" height="35.762"/>
<rect x="239.304" y="249.912" style="fill:#C8F9FA;" width="33.391" height="35.762"/>
<rect x="283.514" y="249.912" style="fill:#92E5EA;" width="33.391" height="35.762"/>
<rect x="327.736" y="249.912" style="fill:#C8F9FA;" width="33.391" height="35.762"/>
<rect x="150.873" y="197.298" style="fill:#92E5EA;" width="33.391" height="35.762"/>
<rect x="195.094" y="197.298" style="fill:#C8F9FA;" width="33.391" height="35.762"/>
<rect x="239.304" y="197.298" style="fill:#92E5EA;" width="33.391" height="35.762"/>
<rect x="283.514" y="197.298" style="fill:#C8F9FA;" width="33.391" height="35.762"/>
<rect x="327.736" y="197.298" style="fill:#92E5EA;" width="33.391" height="35.762"/>
<g>
	<rect x="327.736" y="144.673" style="fill:#C8F9FA;" width="33.391" height="35.762"/>
	<rect x="150.873" y="144.673" style="fill:#C8F9FA;" width="33.391" height="35.762"/>
</g>
<path style="fill:#92E5EA;" d="M256,0c-47.743,0-86.584,38.841-86.584,86.585c0,47.743,38.841,86.584,86.584,86.584
	s86.584-38.841,86.584-86.584C342.584,38.841,303.743,0,256,0z M306.504,69.889h-33.809V36.09
	C288.616,41.368,301.226,53.971,306.504,69.889z M239.304,36.09v33.799h-33.809C210.774,53.971,223.385,41.368,239.304,36.09z
	 M205.496,103.28h33.809v33.798C223.385,131.801,210.774,119.197,205.496,103.28z M272.696,137.078V103.28h33.809
	C301.226,119.197,288.616,131.801,272.696,137.078z"/>
<path style="fill:#D7D7D7;" d="M337.332,386.59H174.668v-58.67h162.666v58.67H337.332z"/>
<path style="fill:#79BBBC;" d="M337.332,359.072H256v-56.43h81.332V359.072z"/>
<path style="fill:#B0B0B0;" d="M337.332,386.59H256v-58.67h81.332V386.59z"/>
<path style="fill:#79BBBC;" d="M256,0v173.168c47.743,0,86.584-38.841,86.584-86.584C342.584,38.841,303.743,0,256,0z
	 M272.696,137.078V103.28h33.809C301.226,119.197,288.616,131.801,272.696,137.078z M272.696,69.889V36.09
	c15.92,5.278,28.531,17.881,33.809,33.799H272.696z"/>
</svg>